<svg width="216" height="86" viewBox="0 0 216 86" fill="none" xmlns="http://www.w3.org/2000/svg">
<rect width="216" height="86" fill="#1E1E1E"/>
<path d="M93.7783 17.2668V12.5062H76.0027V35.0419H93.7783V30.2818H81.3977V25.8366H93.4601V21.3928H81.3977V17.2668H93.7783Z" fill="white"/>
<path d="M127.112 12.5077H121.715V34.7289H127.112V12.5077Z" fill="white"/>
<path d="M181.386 61.0701C180.116 59.8012 178.211 59.1662 175.355 59.1662H172.498C171.863 59.1662 171.23 59.1662 170.594 58.848C169.959 58.5331 169.326 58.2154 169.326 57.2627C169.326 56.6287 169.326 55.9928 169.959 55.6751C170.594 55.3574 171.23 55.3574 172.182 55.3574H182.02V49.9619H171.546C165.831 49.9619 163.928 53.4539 163.928 56.6287C163.928 63.6109 169.959 63.2937 175.038 63.6109C175.989 63.6109 176.625 63.9291 176.943 64.2459C177.261 64.5641 177.576 65.1962 177.576 65.8321C177.576 66.4675 177.261 67.1015 176.943 67.4193C176.308 68.0547 175.671 68.0547 174.721 68.0547H164.562V72.8157H174.721C180.115 72.8157 182.973 70.5922 182.973 65.8316C182.973 63.61 182.338 62.0228 181.386 61.0701Z" fill="white"/>
<path d="M203.826 64.6928C203.173 61.2955 200.263 59.9925 199.384 59.6748C198.424 59.3373 197.375 59.1662 195.987 59.1662H193.448H193.132C192.496 59.1662 191.861 59.1662 191.228 58.848C190.274 58.5331 189.956 58.2154 189.956 57.2627C189.956 56.6287 190.274 55.9928 190.593 55.6751C191.228 55.3574 191.861 55.3574 192.815 55.3574H193.133H195.671H202.655V49.9619H192.18C191.592 49.9619 191.053 50.0076 190.543 50.0778C186.286 50.8872 184.561 53.6118 184.561 56.6292C184.561 63.6114 190.593 63.2941 195.671 63.6114C196.623 63.6114 197.257 63.9296 197.575 64.2463C197.892 64.5645 198.21 65.1967 198.21 65.8326C198.21 66.468 197.892 67.102 197.575 67.4197C196.942 68.0552 196.305 68.0552 195.352 68.0552H185.197V72.8162H195.352C198.528 72.8162 200.751 71.864 202.019 70.5926C203.289 69.3246 203.923 67.7374 203.923 65.8321C203.923 65.4201 203.882 65.0491 203.826 64.6928Z" fill="white"/>
<path d="M161.39 55.0392V50.2791H143.615V72.8162H161.39V68.0552H149.009V63.6114H161.072V59.1662H149.009V55.0392H161.39Z" fill="white"/>
<path d="M63.3043 12.5062L56.9561 27.742L56.8543 28.071L53.9784 21.5404L49.9734 12.8239H49.9617L49.8122 12.5057H43.3066H41.4026V33.7724L32.5156 12.5062H24.5802L15.1892 34.7265H20.7685L21.9366 32.223L22.9907 29.965H33.7845L36.0067 34.7265H46.7982V17.2668L54.4158 34.7261H57.1626V34.7265H58.8601H59.0939L66.4782 17.987V17.9955L66.7964 17.2672V32.8231V34.7265H68.7003H71.8756V12.5062H63.3043ZM24.896 25.2021L28.3885 16.3146L31.8796 25.2021H24.896Z" fill="white"/>
<path d="M183.607 12.823V28.376L174.402 12.823H166.467V25.2017V25.8357V33.0051V34.0897L164.127 28.4901L157.578 12.8226H152.818H149.643L143.089 28.4948L142.342 30.2814H140.119C138.534 30.2814 137.264 29.9637 136.311 29.01C135.043 27.7406 134.724 26.1539 134.724 23.6141C134.724 21.3924 135.359 19.488 136.311 18.5367C137.582 17.5831 138.534 17.2663 140.438 17.2663H145.069H145.517V16.2198V12.5053H140.438C136.947 12.5063 134.089 13.1393 132.503 15.0452C130.28 17.5836 129.647 20.7598 129.647 23.9341C129.647 28.0602 130.598 30.5996 132.503 32.504C134.407 34.4074 137.583 35.0415 140.12 35.0415H146.152L148.057 29.9641H159.167L160.092 32.2768L161.072 34.7256H166.467V34.7388H171.83V31.8346L171.863 31.8676V17.9008L182.02 34.7252H189.004V12.823H183.607ZM149.962 25.2017L153.77 16.3141L157.263 25.2017H149.962Z" fill="white"/>
<path d="M117.89 29.7091C117.89 29.6917 117.888 29.6766 117.888 29.6587C117.886 29.6285 117.884 29.5988 117.883 29.5686C117.879 29.3254 117.865 29.0954 117.844 28.8738C117.838 28.8139 117.83 28.7583 117.823 28.6994C117.804 28.5363 117.782 28.376 117.754 28.2242C117.744 28.1719 117.733 28.1219 117.723 28.0706C117.69 27.9117 117.653 27.7585 117.612 27.6124C117.603 27.5803 117.595 27.5487 117.585 27.5171C117.533 27.3427 117.476 27.1763 117.414 27.0198C117.229 26.5593 117.003 26.1694 116.757 25.8465C116.67 25.7245 116.567 25.5976 116.447 25.4704C116.438 25.4633 116.427 25.4581 116.419 25.451C115.468 24.463 114.41 24.2495 114.41 24.2495C115.969 23.6244 118.138 21.7709 118.212 18.3929C118.175 15.9403 117.236 14.3909 115.68 13.457C114.093 12.5048 112.187 12.5048 109.332 12.5048H97.2693V27.7283V34.7256H102.664V29.9688V26.7912H108.378C109.875 26.7912 110.778 26.7964 111.253 27.1042C111.582 27.2442 111.887 27.4427 112.186 27.7425C112.586 28.2747 112.812 28.9186 112.948 29.5804C112.948 29.5809 112.948 29.5809 112.948 29.5813C113.087 30.2682 113.128 30.9701 113.136 31.5914C113.136 31.5942 113.136 31.5975 113.136 31.6003C113.139 31.8049 113.14 32.0038 113.14 32.1862V34.7266H117.901V30.2828C117.901 30.0895 117.896 29.9113 117.889 29.7364C117.889 29.7265 117.89 29.719 117.89 29.7091ZM112.139 21.4207C112.068 21.5494 111.983 21.6616 111.891 21.7605C111.848 21.81 111.817 21.844 111.817 21.844L111.815 21.8397C111.735 21.9137 111.648 21.9802 111.553 22.0283C110.918 22.3465 109.965 22.3465 109.013 22.3465H102.664V17.2668H109.013C109.965 17.2668 110.918 17.2668 111.553 17.5836C111.957 17.7867 112.36 18.1205 112.517 18.6645L112.519 18.664C112.527 18.6899 112.526 18.7121 112.532 18.7375C112.554 18.8299 112.571 18.9247 112.579 19.027C112.757 20.1456 112.427 20.9644 112.139 21.4207Z" fill="white"/>
<path d="M116.684 54.7257C115.3 51.4038 111.644 50.5978 108.378 50.5978H91.5549L84.8886 57.8977L84.7274 58.0646L83.5423 56.772L77.9054 50.5978H57.2727V72.8172H77.5877L84.5704 65.5153L84.8664 65.8566L84.8876 65.8331L90.9601 72.8172H101.393V69.3251H101.394V67.4202V65.5149V64.5646H107.743C112.503 64.5646 116.947 63.2937 116.947 56.9455C116.947 56.1149 116.85 55.3838 116.684 54.7257ZM75.0493 68.3734H62.0356V63.6109H64.8951H73.7803V59.1662H64.8951H62.0356V55.0392H75.367L81.0807 61.7061L75.0493 68.3734ZM95.9997 70.9099L87.7461 61.7061L95.9997 52.8175V70.9099ZM108.378 60.7534H101.395V55.0397H108.06C109.965 55.0397 111.236 55.9933 111.553 57.8977C111.553 59.8012 110.283 60.7534 108.378 60.7534Z" fill="white"/>
<path d="M140.413 67.5423C140.406 67.4212 140.398 67.3024 140.388 67.1878C140.38 67.1025 140.373 67.0186 140.363 66.9361C140.353 66.847 140.341 66.7617 140.33 66.6764C140.317 66.584 140.304 66.4902 140.289 66.402C140.282 66.3591 140.272 66.3195 140.264 66.278C140.192 65.9014 140.101 65.5578 139.984 65.2452C139.978 65.2306 139.973 65.2146 139.967 65.2C139.926 65.0911 139.882 64.985 139.835 64.8827C139.731 64.6565 139.617 64.4429 139.487 64.2463C139.17 63.6114 138.217 62.9746 136.629 62.3419C138.217 61.7065 140.439 59.8016 140.439 56.311C140.439 53.7716 139.17 52.184 137.583 51.2308C135.994 50.2796 133.772 50.2796 131.234 50.2796H119.213H119.172V50.3239V65.4715V72.8171H124.568V68.0429V64.5645H130.281C132.185 64.5645 133.457 64.5645 134.09 65.5149C135.043 66.4685 135.043 68.6892 135.043 69.961V72.8171H140.439V68.3743C140.439 68.1594 140.433 67.9548 140.425 67.7544C140.422 67.6818 140.417 67.6125 140.413 67.5423ZM134.725 57.8972C134.725 58.848 134.407 59.8012 133.772 60.1194C133.139 60.4371 132.185 60.4371 131.234 60.4371H124.885V55.3574H131.234C132.185 55.3574 133.139 55.3574 133.772 55.6751C134.408 55.9933 135.043 56.6292 134.725 57.8972Z" fill="white"/>
</svg>
