<svg width="1945" height="504" viewBox="0 0 1945 504" fill="none" xmlns="http://www.w3.org/2000/svg">
<rect width="1945" height="504" fill="#1E1E1E"/>
<g clip-path="url(#clip0_0_1)">
<path d="M372.69 504C510.44 504.659 636.17 391.659 636.17 254.19C636.17 103.86 510.44 -0.0500125 372.69 -1.2481e-05H254.14C114.74 -0.0500125 0 103.891 0 254.19C0 391.689 114.74 504.66 254.14 504H372.69Z" fill="#0079BE"/>
<path d="M254.701 20.83C127.321 20.87 24.101 124.12 24.071 251.551C24.101 378.96 127.32 482.2 254.701 482.24C382.111 482.2 485.352 378.96 485.37 251.551C485.351 124.12 382.111 20.87 254.701 20.83ZM108.511 251.551C108.631 189.281 147.521 136.181 202.361 115.08V387.99C147.521 366.901 108.63 313.83 108.511 251.551ZM307.021 388.05V115.071C361.881 136.121 400.831 189.251 400.931 251.551C400.831 313.87 361.881 366.96 307.021 388.05Z" fill="white"/>
<path d="M716.953 108.431C716.953 84.59 704.522 86.16 692.602 85.901V79.011C702.932 79.521 713.522 79.521 723.873 79.521C735.003 79.521 750.113 79.011 769.732 79.011C838.352 79.011 875.722 124.851 875.722 171.79C875.722 198.04 860.363 264.03 766.542 264.03C753.032 264.03 740.562 263.509 728.112 263.509C716.192 263.509 704.522 263.77 692.601 264.03V257.15C708.492 255.549 716.192 255.02 716.952 236.99V108.431H716.953ZM742.933 232.76C742.933 253.17 757.523 255.55 770.503 255.55C827.763 255.55 846.563 212.34 846.563 172.84C846.563 123.29 814.753 87.51 763.614 87.51C752.734 87.51 747.734 88.29 742.934 88.571L742.933 232.76Z" fill="white"/>
<path d="M885.022 257.151H890.042C897.452 257.151 902.763 257.151 902.763 248.38V176.561C902.763 164.912 898.792 163.291 888.983 158.021V153.771C901.433 150.031 916.294 145.031 917.333 144.231C919.203 143.171 920.783 142.891 922.113 142.891C923.424 142.891 923.973 144.491 923.973 146.621V248.38C923.973 257.151 929.803 257.151 937.223 257.151H941.723V264.041C932.702 264.041 923.423 263.512 913.903 263.512C904.363 263.512 894.813 263.772 885.023 264.041V257.151H885.022ZM913.372 102.08C906.473 102.08 900.393 95.721 900.393 88.83C900.393 82.19 906.753 76.08 913.372 76.08C920.242 76.08 926.362 81.671 926.362 88.83C926.362 95.99 920.513 102.08 913.372 102.08Z" fill="white"/>
<path d="M966.901 178.141C966.901 168.341 963.97 165.701 951.541 160.661V155.632C962.931 151.922 973.782 148.472 986.51 142.892C987.301 142.892 988.08 143.432 988.08 145.542V162.781C1003.21 151.922 1016.2 142.891 1033.98 142.891C1056.48 142.891 1064.43 159.33 1064.43 180V248.381C1064.43 257.151 1070.26 257.151 1077.69 257.151H1082.46V264.041C1073.16 264.041 1063.89 263.512 1054.37 263.512C1044.82 263.512 1035.27 263.772 1025.74 264.041V257.151H1030.5C1037.94 257.151 1043.21 257.151 1043.21 248.381V179.75C1043.21 164.62 1033.98 157.21 1018.85 157.21C1010.38 157.21 996.859 164.101 988.079 169.94V248.379C988.079 257.15 993.938 257.15 1001.37 257.15H1006.13V264.04C996.859 264.04 987.569 263.51 978.03 263.51C968.499 263.51 958.94 263.771 949.409 264.04V257.15H954.189C961.609 257.15 966.899 257.15 966.899 248.379V178.141H966.901Z" fill="white"/>
<path d="M1102.61 190.88C1102.06 193.271 1102.06 197.24 1102.61 206.26C1104.17 231.43 1120.38 252.101 1141.55 252.101C1156.14 252.101 1167.56 244.151 1177.35 234.351L1181.05 238.071C1168.85 254.231 1153.75 268.01 1132.03 268.01C1089.88 268.01 1081.4 227.18 1081.4 210.231C1081.4 158.27 1116.38 142.89 1134.92 142.89C1156.4 142.89 1179.47 156.401 1179.72 184.5C1179.72 186.11 1179.72 187.68 1179.47 189.29L1177.07 190.88H1102.61ZM1149.53 182.391C1156.14 182.391 1156.92 178.941 1156.92 175.771C1156.92 162.25 1148.71 151.38 1133.86 151.38C1117.71 151.38 1106.58 163.29 1103.4 182.391H1149.53Z" fill="white"/>
<path d="M1185.82 257.151H1192.98C1200.38 257.151 1205.68 257.151 1205.68 248.38V173.91C1205.68 165.7 1195.89 164.1 1191.9 161.98V158.02C1211.25 149.79 1221.86 142.89 1224.27 142.89C1225.84 142.89 1226.62 143.69 1226.62 146.35V170.2H1227.18C1233.79 159.87 1244.94 142.89 1261.09 142.89C1267.72 142.89 1276.19 147.39 1276.19 156.94C1276.19 164.1 1271.17 170.48 1263.75 170.48C1255.5 170.48 1255.5 164.1 1246.24 164.1C1241.73 164.1 1226.9 170.2 1226.9 186.11V248.38C1226.9 257.15 1232.19 257.15 1239.62 257.15H1254.45V264.041C1239.87 263.77 1228.78 263.511 1217.36 263.511C1206.5 263.511 1195.36 263.771 1185.82 264.041V257.151H1185.82Z" fill="white"/>
<path d="M1287.86 227.18C1291.31 244.68 1301.9 259.531 1321.26 259.531C1336.86 259.531 1342.7 249.991 1342.7 240.711C1342.7 209.431 1284.94 219.501 1284.94 176.831C1284.94 161.981 1296.88 142.891 1326.02 142.891C1334.49 142.891 1345.88 145.291 1356.21 150.601L1358.09 177.612H1351.98C1349.34 160.931 1340.07 151.382 1323.09 151.382C1312.49 151.382 1302.43 157.483 1302.43 168.872C1302.43 199.912 1363.91 190.342 1363.91 231.952C1363.91 249.442 1349.86 268.012 1318.32 268.012C1307.72 268.012 1295.27 264.302 1286 259.012L1283.08 228.523L1287.86 227.18Z" fill="white"/>
<path d="M1603.22 126.99H1596.61C1591.57 95.99 1569.57 83.52 1539.9 83.52C1509.4 83.52 1465.14 103.919 1465.14 167.53C1465.14 221.11 1503.33 259.529 1544.13 259.529C1570.36 259.529 1592.11 241.509 1597.41 213.67L1603.49 215.25L1597.41 253.949C1586.28 260.859 1556.33 268.01 1538.82 268.01C1476.82 268.01 1437.61 227.981 1437.61 168.34C1437.61 114 1486.1 75.02 1538.04 75.02C1559.5 75.02 1580.17 81.94 1600.58 89.1L1603.22 126.99Z" fill="white"/>
<path d="M1612.78 257.151H1617.8C1625.23 257.151 1630.55 257.151 1630.55 248.38V100.761C1630.55 83.521 1626.57 82.99 1616.49 80.08V75.84C1627.09 72.401 1638.22 67.62 1643.79 64.431C1646.68 62.851 1648.82 61.51 1649.6 61.51C1651.22 61.51 1651.75 63.111 1651.75 65.24V248.38C1651.75 257.151 1657.57 257.151 1665 257.151H1669.47V264.041C1660.5 264.041 1651.22 263.511 1641.67 263.511C1632.14 263.511 1622.6 263.772 1612.78 264.041V257.151H1612.78Z" fill="white"/>
<path d="M1782.95 249.441C1782.95 254.231 1785.85 254.491 1790.35 254.491C1793.54 254.491 1797.5 254.231 1800.96 254.231V259.811C1789.55 260.861 1767.82 266.431 1762.78 268.011L1761.45 267.21V245.761C1745.57 258.74 1733.36 268.011 1714.53 268.011C1700.22 268.011 1685.38 258.74 1685.38 236.49V168.61C1685.38 161.72 1684.33 155.089 1669.51 153.77V148.73C1679.06 148.47 1700.22 146.879 1703.68 146.879C1706.62 146.879 1706.62 148.73 1706.62 154.56V222.929C1706.62 230.9 1706.62 253.689 1729.66 253.689C1738.67 253.689 1750.59 246.799 1761.71 237.549V166.209C1761.71 160.929 1749 158.019 1739.48 155.358V150.588C1763.3 148.988 1778.17 146.878 1780.8 146.878C1782.95 146.878 1782.95 148.728 1782.95 151.658V249.441H1782.95Z" fill="white"/>
<path d="M1835.68 161.981C1846.27 152.97 1860.58 142.891 1875.17 142.891C1905.92 142.891 1924.45 169.691 1924.45 198.56C1924.45 233.281 1899.02 268.01 1861.1 268.01C1841.5 268.01 1831.17 261.64 1824.27 258.739L1816.33 264.819L1810.78 261.92C1813.13 246.28 1814.48 230.9 1814.48 214.74V100.76C1814.48 83.521 1810.48 82.99 1800.42 80.08V75.84C1811.05 72.401 1822.15 67.62 1827.72 64.43C1830.64 62.85 1832.75 61.51 1833.57 61.51C1835.15 61.51 1835.68 63.111 1835.68 65.24V161.98H1835.68V161.981ZM1835.68 234.071C1835.68 244.151 1845.21 261.131 1862.97 261.131C1891.33 261.131 1903.25 233.281 1903.25 209.682C1903.25 181.062 1881.54 157.212 1860.86 157.212C1851.03 157.212 1842.83 163.582 1835.68 169.691V234.071H1835.68Z" fill="white"/>
<path d="M692.299 418.15H694.329C699.509 418.15 704.989 417.451 704.989 409.94V334.38C704.989 326.859 699.509 326.15 694.329 326.15H692.299V321.82C697.929 321.82 706.579 322.39 713.669 322.39C720.869 322.39 729.509 321.82 736.289 321.82V326.15H734.259C729.089 326.15 723.6 326.86 723.6 334.38V409.94C723.6 417.451 729.089 418.15 734.259 418.15H736.289V422.501C729.369 422.501 720.699 421.931 713.509 421.931C706.44 421.931 697.929 422.501 692.299 422.501V418.15Z" fill="white"/>
<path d="M736.293 423.111C729.323 423.111 720.684 422.531 713.503 422.531C706.453 422.531 697.974 423.111 692.303 423.111H691.684V422.491V418.161V417.531H692.303H694.324C699.553 417.411 704.314 416.991 704.364 409.941V334.38C704.314 327.33 699.554 326.859 694.324 326.76H691.684V326.151V321.18H692.303C697.974 321.18 706.614 321.75 713.663 321.75C720.843 321.75 729.474 321.18 736.293 321.18H736.934V321.84V326.76H736.293H734.273C729.043 326.86 724.252 327.33 724.223 334.38V409.941C724.252 416.991 729.042 417.411 734.273 417.531H736.933V418.161V423.111H736.293ZM735.673 421.88V418.8H734.274C729.124 418.8 722.994 417.91 722.963 409.941V334.38C722.993 326.41 729.123 325.51 734.274 325.51H735.673V322.45C729.013 322.45 720.663 323.01 713.663 323.01C706.813 323.01 698.523 322.49 692.943 322.45V325.51H694.323C699.463 325.51 705.613 326.41 705.613 334.38V409.941C705.613 417.911 699.463 418.8 694.323 418.8H692.943V421.88C698.523 421.82 706.672 421.3 713.503 421.3C720.523 421.3 728.873 421.84 735.673 421.88Z" fill="white"/>
<path d="M835.363 394.07L835.652 393.79V339.71C835.652 327.87 827.423 326.15 823.103 326.15H819.922V321.819C826.712 321.819 833.342 322.389 840.112 322.389C846.021 322.389 851.962 321.819 857.862 321.819V326.15H855.702C849.632 326.15 842.852 327.299 842.852 344.46V410.1C842.852 415.141 843.001 420.18 843.711 424.651H838.222L763.972 341.861V401.291C763.972 413.841 766.402 418.151 777.522 418.151H779.961V422.501C773.772 422.501 767.581 421.931 761.371 421.931C754.901 421.931 748.262 422.501 741.762 422.501V418.151H743.782C753.732 418.151 756.753 411.39 756.753 399.861V339.111C756.753 331.041 750.103 326.151 743.643 326.151H741.763V321.821C747.242 321.821 752.863 322.39 758.333 322.39C762.662 322.39 766.853 321.821 771.172 321.821L835.363 394.07Z" fill="white"/>
<path d="M843.708 425.281L837.759 425.06L764.578 343.491V401.291C764.748 413.831 766.658 417.392 777.518 417.531H780.608V418.151V423.111H779.968C773.728 423.111 767.518 422.531 761.367 422.531C754.907 422.531 748.287 423.111 741.747 423.111H741.117V422.491V417.531H741.747H743.777C753.307 417.481 756.027 411.361 756.137 399.861V339.121C756.116 331.441 749.817 326.781 743.637 326.761H741.116V326.121V321.201H741.746C747.257 321.201 752.906 321.751 758.316 321.751C762.606 321.751 766.787 321.201 771.646 321.411L835.026 392.762V339.722C834.946 328.242 827.297 326.862 823.096 326.761H819.276V326.121V321.201H819.916C826.727 321.201 833.366 321.751 840.106 321.751C845.976 321.751 851.886 321.201 857.846 321.201H858.476V321.821V326.76H857.846H855.696C849.746 326.931 843.636 327.45 843.467 344.46V410.09C843.467 415.13 843.616 420.17 844.317 424.54L844.457 425.28H843.708V425.281ZM838.229 424.01H842.999C842.35 419.68 842.239 414.88 842.239 410.09V344.46C842.239 327.15 849.489 325.511 855.699 325.511H857.219V322.45C851.539 322.49 845.839 323.01 840.11 323.01C833.51 323.01 827.09 322.49 820.56 322.45L820.55 325.511H823.1C827.53 325.511 836.28 327.49 836.28 339.721L836.08 394.22L835.79 394.521L835.301 394.971L771.17 322.45C766.891 322.45 762.71 323.01 758.32 323.01C753.03 323.01 747.62 322.49 742.39 322.45L742.36 325.51H743.64C750.41 325.51 757.36 330.68 757.36 339.12V399.86C757.36 411.389 754.15 418.769 743.78 418.809L742.39 418.769V421.879C748.64 421.819 755.06 421.299 761.369 421.299C767.39 421.299 773.38 421.82 779.339 421.879V418.809H777.52C766.169 418.769 763.35 413.83 763.339 401.289V340.239L838.229 424.01ZM835.358 394.06L835.818 393.64L835.358 394.06ZM835.028 393.781V393.731L834.908 393.63L835.028 393.781Z" fill="white"/>
<path d="M879.449 329.02C868.619 329.02 868.209 331.621 866.049 342.14H861.719C862.289 338.11 863.009 334.08 863.449 329.88C864.028 325.84 864.308 321.819 864.308 317.64H867.778C868.938 321.97 872.539 321.82 876.449 321.82H950.839C954.738 321.82 958.339 321.68 958.639 317.341L962.078 317.921C961.518 321.82 960.938 325.711 960.498 329.61C960.238 333.501 960.238 337.4 960.238 341.28L955.898 342.89C955.598 337.56 954.878 329.02 945.228 329.02H921.578V405.76C921.578 416.88 926.629 418.151 933.528 418.151H936.278V422.501C930.658 422.501 920.549 421.931 912.778 421.931C904.129 421.931 894.018 422.501 888.388 422.501V418.151H891.138C899.088 418.151 903.108 417.44 903.108 406.06V329.02H879.449V329.02Z" fill="white"/>
<path d="M936.301 423.111C930.62 423.111 920.53 422.531 912.78 422.531C904.14 422.531 894.051 423.111 888.39 423.111H887.79V422.501V417.531H888.39H891.14C899.09 417.341 902.289 417.241 902.47 406.06V329.651H879.45V329.02V328.38H903.721V406.06C903.721 417.63 899.061 418.8 891.141 418.81H889.021V421.85C894.711 421.821 904.411 421.3 912.781 421.3C920.302 421.3 929.941 421.821 935.641 421.85V418.81H933.531C926.561 418.8 920.951 417.09 920.951 405.76V328.38H945.231C954.911 328.42 956.171 336.65 956.491 342L959.601 340.85C959.601 337.09 959.621 333.32 959.881 329.52C960.301 325.81 960.831 322.13 961.371 318.45L959.17 318.08C958.501 322.28 954.45 322.49 950.82 322.45H876.45H875.7C872.31 322.45 868.6 322.29 867.31 318.261H864.93C864.909 322.251 864.629 326.121 864.079 329.96C863.659 333.921 862.999 337.731 862.459 341.541H865.55C867.449 331.49 868.69 328.23 879.449 328.381V329.021V329.651C868.789 329.841 869.01 331.641 866.659 342.301L866.55 342.791H866.05H861L861.08 342.041C861.66 338.001 862.391 333.98 862.82 329.78C863.42 325.78 863.7 321.78 863.7 317.64V317.01H864.31H868.27L868.37 317.46C869.36 321.1 872.03 321.12 875.7 321.18H876.45H950.82C954.841 321.12 957.76 321.06 958.01 317.289L958.07 316.609L958.72 316.749L962.79 317.39L962.699 318.02C962.119 321.88 961.55 325.78 961.13 329.65C960.84 333.49 960.84 337.39 960.84 341.28V341.73L960.44 341.89L955.33 343.749L955.291 342.909C954.91 337.489 954.34 329.649 945.23 329.649H922.21V405.759C922.34 416.639 926.659 417.389 933.529 417.529H936.909V418.149V423.109L936.301 423.111Z" fill="white"/>
<path d="M966.691 418.15H968.721C973.902 418.15 979.39 417.451 979.39 409.94V334.38C979.39 326.859 973.902 326.15 968.721 326.15H966.691V321.82C975.471 321.82 990.492 322.39 1002.58 322.39C1014.72 322.39 1029.69 321.82 1039.49 321.82C1039.25 328.01 1039.38 337.55 1039.81 343.881L1035.46 345.04C1034.77 335.671 1033.04 328.181 1017.89 328.181H997.861V365.951H1015C1023.65 365.951 1025.54 361.061 1026.39 353.252H1030.71C1030.43 358.901 1030.28 364.522 1030.28 370.142C1030.28 375.632 1030.43 381.102 1030.71 386.582L1026.39 387.441C1025.54 378.792 1025.1 373.171 1015.14 373.171H997.862V406.761C997.862 416.151 1006.19 416.151 1015.43 416.151C1032.74 416.151 1040.37 414.981 1044.7 398.561L1048.74 399.551C1046.85 407.211 1045.13 414.841 1043.85 422.501C1034.61 422.501 1018.02 421.931 1005.06 421.931C992.061 421.931 974.913 422.501 966.691 422.501V418.15V418.15Z" fill="white"/>
<path d="M1043.84 423.111C1034.58 423.111 1018 422.52 1005.05 422.52C992.059 422.52 974.918 423.111 966.688 423.111H966.079V422.501V418.151V417.531H966.688H968.709C973.938 417.451 978.678 416.991 978.749 409.941V334.38C978.679 327.34 973.938 326.87 968.709 326.76H966.079V326.151V321.201H966.688C975.488 321.201 990.488 321.751 1002.58 321.751C1014.71 321.751 1029.67 321.201 1039.49 321.201H1040.14L1040.11 321.841C1040.01 324.011 1039.97 326.57 1039.97 329.291C1039.97 334.28 1040.11 339.73 1040.4 343.841L1040.42 344.361L1039.94 344.502L1034.87 345.822L1034.84 345.082C1033.99 335.722 1032.74 328.932 1017.89 328.792H998.46L998.439 365.302H1015C1023.3 365.222 1024.79 360.972 1025.77 353.202L1025.82 352.632H1026.38H1031.35L1031.34 353.281C1031.06 358.901 1030.88 364.521 1030.88 370.141C1030.88 375.601 1031.06 381.071 1031.34 386.561L1031.35 387.072L1030.83 387.191L1025.82 388.191L1025.77 387.511C1024.78 378.711 1024.71 373.891 1015.13 373.782L998.459 373.771V406.761C998.471 415.521 1006.03 415.471 1015.43 415.521C1032.79 415.421 1039.75 414.582 1044.1 398.381L1044.24 397.801L1044.85 397.911L1049.47 399.1L1049.33 399.701C1047.47 407.341 1045.74 414.961 1044.45 422.6L1044.33 423.111H1043.84V423.111ZM1043.31 421.851C1044.56 414.58 1046.21 407.281 1047.98 400.02L1045.13 399.3C1040.81 415.441 1032.45 416.88 1015.43 416.771C1006.35 416.771 997.248 416.771 997.207 406.76V372.54H1015.13C1025.2 372.43 1026.23 378.51 1026.94 386.72L1030.06 386.071C1029.78 380.76 1029.65 375.43 1029.65 370.14C1029.65 364.71 1029.78 359.311 1030.06 353.88H1026.94C1026.14 361.39 1023.79 366.67 1015 366.57H997.208V327.53H1017.89C1032.89 327.429 1035.38 335.17 1036.02 344.24L1039.13 343.4C1038.88 339.33 1038.71 334.11 1038.71 329.29C1038.71 326.82 1038.77 324.49 1038.85 322.45C1029.05 322.49 1014.45 323.01 1002.58 323.01C990.729 323.01 976.14 322.49 967.309 322.45V325.51H968.708C973.848 325.51 979.989 326.41 980.008 334.38V409.941C979.988 417.891 973.848 418.771 968.708 418.811H967.309V421.851C975.72 421.84 992.38 421.301 1005.05 421.301C1017.77 421.301 1034.01 421.84 1043.31 421.851Z" fill="white"/>
<path d="M1068.2 337.1C1068.2 326.58 1062.44 326.15 1057.95 326.15H1055.36V321.81C1059.98 321.81 1068.91 322.39 1077.71 322.39C1086.36 322.39 1093.29 321.81 1100.92 321.81C1119.08 321.81 1135.25 326.72 1135.25 347.22C1135.25 360.17 1126.6 368.11 1115.21 372.6L1139.86 409.5C1143.9 415.6 1146.77 417.31 1153.85 418.149V422.5C1149.09 422.5 1144.47 421.93 1139.72 421.93C1135.25 421.93 1130.62 422.5 1126.17 422.5C1115.07 407.93 1105.53 392.35 1096.16 375.75H1086.67V406.63C1086.67 417.75 1091.84 418.15 1098.47 418.15H1101.07V422.501C1092.83 422.501 1084.5 421.931 1076.27 421.931C1069.34 421.931 1062.56 422.501 1055.36 422.501V418.15H1057.95C1063.31 418.15 1068.2 415.73 1068.2 410.38V337.1V337.1ZM1086.67 370.56H1093.71C1108.14 370.56 1115.91 365.081 1115.91 348.06C1115.91 335.24 1107.7 327.01 1094.85 327.01C1090.52 327.01 1088.68 327.46 1086.67 327.59V370.56H1086.67Z" fill="white"/>
<path d="M1153.85 423.111C1149.02 423.111 1144.43 422.531 1139.69 422.531C1135.29 422.531 1130.69 423.111 1125.66 422.871C1114.6 408.361 1105.12 392.871 1095.8 376.391H1087.28V406.612C1087.43 417.462 1091.79 417.372 1098.46 417.532H1101.69V418.152V423.112H1101.05C1092.81 423.112 1084.44 422.532 1076.25 422.532C1069.36 422.532 1062.6 423.112 1055.36 423.112H1054.73V422.492V417.532H1055.36H1057.95C1063.15 417.502 1067.53 415.242 1067.55 410.382V337.103C1067.44 326.863 1062.43 326.922 1057.95 326.773H1054.73V326.153V321.183H1055.36C1060.03 321.183 1068.93 321.752 1077.71 321.752C1086.32 321.752 1093.25 321.183 1100.93 321.183C1119.1 321.223 1135.84 326.243 1135.89 347.183C1135.89 360.213 1127.28 368.342 1116.15 372.883L1140.38 409.162C1144.41 415.142 1146.92 416.633 1153.94 417.532L1154.47 417.612V418.152V423.112H1153.85V423.111ZM1086.65 375.13H1096.51L1096.68 375.45C1106.08 392.02 1115.55 407.58 1126.17 421.88C1130.57 421.88 1135.2 421.29 1139.69 421.29C1144.3 421.29 1148.74 421.79 1153.23 421.86V418.7C1146.46 417.86 1143.29 415.84 1139.35 409.85L1114.26 372.299L1114.97 372.009C1126.25 367.57 1134.6 359.86 1134.61 347.179C1134.6 327.169 1119.06 322.53 1100.93 322.45C1093.32 322.45 1086.4 323.02 1077.71 323.02C1069.24 323.02 1060.69 322.49 1055.97 322.45V325.51H1057.95C1062.43 325.521 1068.81 326.26 1068.81 337.101V410.38C1068.81 416.17 1063.38 418.81 1057.95 418.82H1055.97V421.859C1062.91 421.839 1069.48 421.29 1076.25 421.29C1084.32 421.29 1092.45 421.84 1100.43 421.859V418.82H1098.46C1091.88 418.809 1086.02 417.99 1086.02 406.61V375.13H1086.65H1086.65ZM1086.65 371.17H1086.02V327.01L1086.57 326.96C1088.54 326.811 1090.49 326.4 1094.85 326.4C1107.99 326.4 1116.53 334.94 1116.55 348.089C1116.51 365.309 1108.25 371.159 1093.71 371.169H1086.65V371.17ZM1093.71 369.931C1107.99 369.81 1115.17 364.851 1115.32 348.09C1115.24 335.49 1107.41 327.67 1094.85 327.62C1090.95 327.62 1089.12 327.98 1087.28 328.141V369.931H1093.71V369.931Z" fill="white"/>
<path d="M1251.76 394.07L1252.02 393.79V339.71C1252.02 327.87 1243.81 326.15 1239.49 326.15H1236.33V321.819C1243.1 321.819 1249.72 322.389 1256.51 322.389C1262.43 322.389 1268.32 321.819 1274.27 321.819V326.15H1272.1C1266.04 326.15 1259.26 327.299 1259.26 344.46V410.1C1259.26 415.141 1259.4 420.18 1260.11 424.651H1254.64L1180.38 341.861V401.291C1180.38 413.841 1182.83 418.151 1193.93 418.151H1196.38V422.501C1190.19 422.501 1183.98 421.931 1177.79 421.931C1171.28 421.931 1164.65 422.501 1158.17 422.501V418.151H1160.17C1170.13 418.151 1173.16 411.39 1173.16 399.861V339.111C1173.16 331.041 1166.53 326.151 1160.05 326.151H1158.17V321.821C1163.63 321.821 1169.28 322.39 1174.75 322.39C1179.05 322.39 1183.25 321.821 1187.58 321.821L1251.76 394.07Z" fill="white"/>
<path d="M1260.12 425.27L1254.18 425.07L1180.99 343.491V401.281C1181.16 413.831 1183.06 417.39 1193.94 417.531H1196.99V418.151V423.111H1196.36C1190.12 423.111 1183.94 422.52 1177.76 422.52C1171.32 422.52 1164.66 423.111 1158.17 423.111H1157.52V422.501V417.531H1158.17H1160.17C1169.69 417.491 1172.42 411.361 1172.51 399.821V339.111C1172.5 331.43 1166.21 326.771 1160.05 326.76H1157.52V326.151V321.181H1158.17C1163.67 321.181 1169.31 321.75 1174.75 321.75C1178.99 321.75 1183.17 321.181 1188.01 321.38L1251.4 392.761V339.7C1251.36 328.24 1243.68 326.82 1239.49 326.761H1235.68V326.151V321.181H1236.31C1243.13 321.181 1249.77 321.75 1256.51 321.75C1262.39 321.75 1268.3 321.181 1274.24 321.181H1274.87V321.831V326.761H1274.24H1272.1C1266.15 326.921 1260.02 327.45 1259.87 344.461V410.09C1259.87 415.13 1260 420.13 1260.73 424.57L1260.81 425.27H1260.12ZM1254.64 424.01H1259.38C1258.75 419.68 1258.61 414.88 1258.61 410.09V344.46C1258.62 327.149 1265.92 325.55 1272.1 325.5H1273.61V322.45C1267.95 322.49 1262.24 323.01 1256.51 323.01C1249.89 323.01 1243.46 322.49 1236.93 322.45V325.5H1239.49C1243.93 325.55 1252.67 327.49 1252.67 339.7L1252.47 394.22L1252.19 394.52L1251.75 394.98L1187.57 322.451C1183.29 322.451 1179.11 323.011 1174.75 323.011C1169.41 323.011 1164.02 322.491 1158.77 322.451V325.501H1160.05C1166.82 325.551 1173.77 330.661 1173.77 339.111V399.82C1173.77 411.4 1170.51 418.77 1160.17 418.81L1158.77 418.8V421.85C1165 421.82 1171.43 421.3 1177.76 421.3C1183.81 421.3 1189.8 421.82 1195.76 421.85V418.81H1193.94C1182.58 418.8 1179.74 413.831 1179.72 401.28V340.26L1254.64 424.01ZM1251.76 394.06L1252.2 393.65L1251.76 394.06ZM1251.4 393.79V393.739L1251.29 393.63L1251.4 393.79Z" fill="white"/>
<path d="M1297.46 401.87C1296 406.76 1294.26 410.54 1294.26 413.11C1294.26 417.45 1300.33 418.15 1305.07 418.15H1306.68V422.5C1300.9 422.189 1295.01 421.93 1289.2 421.93C1284.01 421.93 1278.85 422.191 1273.65 422.5V418.15H1274.52C1280.14 418.15 1284.91 414.839 1287.04 408.77L1310.14 342.589C1312 337.249 1314.62 330.039 1315.49 324.69C1320.08 323.12 1325.86 320.24 1328.59 318.5C1329.04 318.351 1329.29 318.2 1329.74 318.2C1330.17 318.2 1330.45 318.2 1330.77 318.65C1331.19 319.79 1331.61 321.1 1332.07 322.25L1358.6 397.69C1360.33 402.73 1362.04 408.06 1363.91 412.4C1365.65 416.44 1368.69 418.15 1373.46 418.15H1374.31V422.5C1367.82 422.19 1361.32 421.931 1354.42 421.931C1347.35 421.931 1340.12 422.191 1332.77 422.5V418.15H1334.37C1337.68 418.15 1343.31 417.59 1343.31 413.98C1343.31 412.11 1342.01 408.22 1340.41 403.59L1334.79 386.86H1302.06L1297.46 401.87ZM1318.5 337.97H1318.21L1304.8 378.79H1331.75L1318.5 337.97Z" fill="white"/>
<path d="M1374.27 423.111C1367.78 422.821 1361.29 422.52 1354.42 422.52C1347.35 422.52 1340.17 422.821 1332.79 423.111L1332.14 423.151V422.501V417.511H1332.77H1334.36C1337.7 417.511 1342.66 416.751 1342.66 413.982C1342.7 412.341 1341.4 408.381 1339.81 403.792L1334.32 387.482H1302.51L1298.03 402.051C1296.57 406.971 1294.84 410.781 1294.85 413.131C1294.9 416.652 1300.29 417.511 1305.07 417.511H1307.29V418.161V423.151L1306.64 423.111C1300.87 422.821 1294.98 422.52 1289.23 422.52C1284.06 422.52 1278.86 422.821 1273.69 423.111L1273.02 423.151V422.501V417.511H1273.65H1274.51C1279.88 417.491 1284.36 414.442 1286.44 408.572L1309.53 342.382C1311.42 337.032 1314.02 329.842 1315.27 324.092C1319.79 322.562 1325.58 319.662 1328.36 317.902C1328.76 317.772 1329.16 317.572 1329.75 317.572C1330.1 317.562 1330.88 317.652 1331.34 318.413C1331.75 319.602 1332.2 320.883 1332.64 322.053L1359.2 397.484C1360.9 402.544 1362.62 407.874 1364.51 412.133C1366.18 415.984 1368.82 417.493 1373.46 417.513H1374.94V418.163V423.153L1374.27 423.111ZM1333.4 421.821C1340.54 421.571 1347.53 421.291 1354.42 421.291C1361.12 421.291 1367.39 421.571 1373.66 421.821V418.81H1373.46C1368.52 418.84 1365.11 416.901 1363.34 412.651C1361.46 408.271 1359.7 402.921 1358.01 397.871L1331.46 322.451C1331.02 321.301 1330.6 319.991 1330.22 318.971C1330.1 318.831 1330.13 318.831 1330.01 318.831H1329.75C1329.45 318.831 1329.28 318.921 1328.91 319.021C1326.13 320.831 1320.34 323.661 1316.07 324.791C1315.18 330.251 1312.59 337.451 1310.71 342.791L1287.63 408.991C1285.43 415.251 1280.38 418.821 1274.51 418.81H1274.28V421.821C1279.22 421.571 1284.22 421.291 1289.23 421.291C1294.8 421.291 1300.5 421.571 1306 421.821V418.81H1305.07C1300.38 418.75 1293.82 418.22 1293.64 413.13C1293.65 410.25 1295.42 406.561 1296.83 401.691L1297.46 401.88L1296.83 401.67L1301.58 386.25H1335.2L1340.99 403.391C1342.61 408.021 1343.92 411.861 1343.92 413.981C1343.72 418.411 1337.63 418.721 1334.36 418.811H1333.4V421.821H1333.4ZM1303.92 379.41L1317.73 337.34H1318.21H1318.51V337.97L1318.35 338L1318.51 337.97V337.34H1318.94L1332.63 379.41H1303.92ZM1305.65 378.16H1330.89L1318.34 339.51L1305.65 378.16ZM1317.88 338.151L1318.21 338.041L1317.88 338.151Z" fill="white"/>
<path d="M1380.65 329.02C1369.83 329.02 1369.4 331.621 1367.23 342.14H1362.9C1363.47 338.11 1364.2 334.08 1364.65 329.88C1365.23 325.84 1365.49 321.819 1365.49 317.64H1368.97C1370.12 321.97 1373.74 321.82 1377.61 321.82H1452.04C1455.91 321.82 1459.51 321.68 1459.81 317.341L1463.26 317.921C1462.71 321.82 1462.14 325.711 1461.7 329.61C1461.39 333.501 1461.39 337.4 1461.39 341.28L1457.07 342.89C1456.8 337.56 1456.08 329.02 1446.41 329.02H1422.76V405.76C1422.76 416.88 1427.82 418.151 1434.72 418.151H1437.46V422.501C1431.84 422.501 1421.76 421.931 1413.96 421.931C1405.32 421.931 1395.21 422.501 1389.59 422.501V418.151H1392.32C1400.27 418.151 1404.31 417.44 1404.31 406.06V329.02H1380.65V329.02Z" fill="white"/>
<path d="M1437.46 423.111C1431.8 423.111 1421.7 422.531 1413.96 422.531C1405.34 422.531 1395.24 423.111 1389.59 423.111H1388.95V422.501V417.531H1389.59H1392.32C1400.27 417.341 1403.46 417.241 1403.66 406.06L1403.64 329.651H1380.65V329.02V328.38H1404.91V406.06C1404.91 417.63 1400.24 418.77 1392.32 418.8H1390.2V421.88C1395.91 421.819 1405.59 421.3 1413.96 421.3C1421.49 421.3 1431.13 421.821 1436.83 421.88V418.8H1434.7C1427.77 418.77 1422.15 417.1 1422.13 405.76V328.38H1446.41C1456.09 328.42 1457.36 336.65 1457.63 342L1460.78 340.85C1460.78 337.09 1460.79 333.32 1461.07 329.54C1461.47 325.83 1462.01 322.13 1462.54 318.449L1460.36 318.079C1459.7 322.279 1455.63 322.51 1452.04 322.449H1377.61H1376.88C1373.48 322.489 1369.8 322.289 1368.49 318.239H1366.13C1366.09 322.239 1365.82 326.12 1365.25 329.96C1364.87 333.93 1364.16 337.75 1363.62 341.54H1366.71C1368.62 331.489 1369.87 328.229 1380.65 328.38V329.02V329.65C1369.96 329.831 1370.2 331.64 1367.84 342.3L1367.73 342.79H1367.23H1362.17L1362.26 342.069C1362.86 338 1363.58 333.979 1364 329.809C1364.59 325.779 1364.87 321.779 1364.87 317.639V317.009H1365.49H1369.43L1369.55 317.459C1370.56 321.099 1373.19 321.119 1376.88 321.179L1377.61 321.199H1452.04C1456.02 321.12 1458.93 321.059 1459.18 317.3L1459.22 316.61L1459.9 316.751L1463.99 317.391L1463.88 318.021C1463.29 321.881 1462.74 325.781 1462.3 329.651C1462.01 333.491 1462.01 337.401 1462.01 341.281V341.731L1461.6 341.891L1456.49 343.751L1456.46 342.91C1456.09 337.491 1455.52 329.65 1446.41 329.65H1423.38V405.76C1423.53 416.64 1427.84 417.39 1434.7 417.53H1438.08V418.15V423.11L1437.46 423.111Z" fill="white"/>
<path d="M1468.59 418.15H1470.61C1475.82 418.15 1481.27 417.451 1481.27 409.94V334.38C1481.27 326.859 1475.82 326.15 1470.61 326.15H1468.59V321.82C1474.22 321.82 1482.86 322.39 1489.91 322.39C1497.15 322.39 1505.8 321.82 1512.58 321.82V326.15H1510.56C1505.37 326.15 1499.87 326.86 1499.87 334.38V409.94C1499.87 417.451 1505.37 418.15 1510.56 418.15H1512.58V422.501C1505.65 422.501 1496.99 421.931 1489.8 421.931C1482.72 421.931 1474.22 422.501 1468.59 422.501V418.15Z" fill="white"/>
<path d="M1512.58 423.111C1505.61 423.111 1496.98 422.52 1489.79 422.52C1482.74 422.52 1474.22 423.111 1468.59 423.111H1467.96V422.501V418.151V417.531H1468.59H1470.61C1475.82 417.451 1480.6 417.001 1480.62 409.941V334.38C1480.6 327.34 1475.82 326.859 1470.61 326.76H1467.96V326.151V321.201H1468.59C1474.22 321.201 1482.88 321.751 1489.91 321.751C1497.1 321.751 1505.75 321.201 1512.58 321.201H1513.19V321.82V326.76H1512.58H1510.56C1505.29 326.86 1500.56 327.34 1500.49 334.38V409.941C1500.56 417.001 1505.29 417.451 1510.56 417.531H1513.19V418.151V423.111H1512.58ZM1511.93 421.851V418.8H1510.56C1505.39 418.8 1499.27 417.891 1499.27 409.941V334.38C1499.27 326.41 1505.39 325.51 1510.56 325.51H1511.93V322.45C1505.27 322.49 1496.94 323.01 1489.91 323.01C1483.08 323.01 1474.81 322.49 1469.22 322.45V325.51H1470.61C1475.74 325.51 1481.89 326.41 1481.9 334.38V409.941C1481.88 417.89 1475.74 418.8 1470.61 418.8H1469.22V421.851C1474.78 421.79 1482.94 421.3 1489.79 421.3C1496.78 421.3 1505.13 421.821 1511.93 421.851H1511.93Z" fill="white"/>
<path d="M1570.09 319.66C1600.83 319.66 1625.33 338.72 1625.33 369.43C1625.33 402.611 1601.54 424.66 1570.84 424.66C1540.24 424.66 1516.9 403.889 1516.9 372.88C1516.9 342.89 1540.1 319.66 1570.09 319.66ZM1572.27 418.31C1600.25 418.31 1605.12 393.63 1605.12 372.6C1605.12 351.52 1593.76 326 1569.81 326C1544.57 326 1537.08 348.5 1537.08 367.81C1537.08 393.63 1548.9 418.31 1572.27 418.31Z" fill="white"/>
<path d="M1516.25 372.88C1516.31 342.54 1539.79 319.07 1570.08 319.03V319.66V320.269C1540.44 320.269 1517.5 343.2 1517.47 372.879C1517.54 403.539 1540.55 423.999 1570.83 424.009C1601.23 423.999 1624.68 402.259 1624.73 369.4C1624.7 339.08 1600.57 320.309 1570.08 320.269V319.66V319.03C1601.06 319.05 1625.89 338.3 1625.95 369.4C1625.92 402.929 1601.82 425.21 1570.83 425.269C1539.99 425.209 1516.31 404.229 1516.25 372.879H1516.25V372.88ZM1536.45 367.81C1536.49 348.411 1544.07 325.35 1569.81 325.35C1594.29 325.411 1605.72 351.411 1605.76 372.6C1605.72 393.63 1600.77 418.911 1572.27 418.911V418.311V417.69C1599.69 417.651 1604.44 393.63 1604.51 372.6C1604.51 351.691 1593.25 326.661 1569.81 326.63C1545.07 326.66 1537.75 348.6 1537.7 367.81C1537.72 393.5 1549.43 417.63 1572.27 417.69V418.311V418.911C1548.33 418.88 1536.49 393.781 1536.45 367.81Z" fill="white"/>
<path d="M1722.51 394.07L1722.8 393.79V339.71C1722.8 327.87 1714.56 326.15 1710.23 326.15H1707.11V321.819C1713.87 321.819 1720.5 322.389 1727.26 322.389C1733.19 322.389 1739.1 321.819 1745.02 321.819V326.15H1742.84C1736.8 326.15 1730.01 327.299 1730.01 344.46V410.1C1730.01 415.141 1730.15 420.18 1730.88 424.651H1725.41L1651.13 341.861V401.291C1651.13 413.841 1653.57 418.151 1664.67 418.151H1667.14V422.501C1660.93 422.501 1654.74 421.931 1648.54 421.931C1642.05 421.931 1635.4 422.501 1628.91 422.501V418.151H1630.94C1640.91 418.151 1643.9 411.39 1643.9 399.861V339.111C1643.9 331.041 1637.3 326.151 1630.79 326.151H1628.91V321.821C1634.39 321.821 1640.02 322.39 1645.49 322.39C1649.82 322.39 1653.99 321.821 1658.33 321.821L1722.51 394.07Z" fill="white"/>
<path d="M1730.89 425.27L1724.92 425.06L1651.75 343.49V401.291C1651.91 413.831 1653.82 417.381 1664.65 417.511H1667.77V418.161V423.111H1667.14C1660.89 423.111 1654.7 422.531 1648.54 422.531C1642.07 422.531 1635.45 423.111 1628.9 423.111H1628.3V422.491V417.511H1628.9H1630.94C1640.45 417.482 1643.18 411.362 1643.3 399.861V339.111C1643.28 331.431 1636.99 326.771 1630.79 326.761H1628.3V326.151V321.201H1628.9C1634.43 321.201 1640.05 321.752 1645.49 321.752C1649.77 321.752 1653.93 321.201 1658.81 321.412L1722.17 392.762V339.722C1722.13 328.243 1714.45 326.862 1710.23 326.762H1706.44V326.153V321.203H1707.09C1713.88 321.203 1720.53 321.753 1727.24 321.753C1733.16 321.753 1739.04 321.203 1745.02 321.203H1745.64V321.822V326.762H1745.02H1742.83C1736.9 326.932 1730.77 327.472 1730.65 344.462V410.092C1730.65 415.132 1730.76 420.161 1731.46 424.571L1731.58 425.271H1730.89V425.27ZM1725.41 424.01H1730.13C1729.5 419.68 1729.39 414.88 1729.39 410.09V344.46C1729.39 327.12 1736.66 325.55 1742.84 325.5H1744.4V322.45C1738.71 322.49 1733.01 323.01 1727.24 323.01C1720.68 323.01 1714.23 322.49 1707.7 322.45V325.5H1710.23C1714.7 325.55 1723.4 327.521 1723.4 339.72L1723.24 394.22L1722.97 394.521L1722.51 394.98L1658.33 322.451C1654.08 322.451 1649.87 323.011 1645.49 323.011C1640.18 323.011 1634.77 322.491 1629.52 322.451V325.501H1630.79C1637.56 325.551 1644.53 330.661 1644.53 339.111V399.861C1644.53 411.391 1641.31 418.771 1630.94 418.811L1629.52 418.8V421.851C1635.78 421.821 1642.2 421.301 1648.54 421.301C1654.55 421.301 1660.52 421.821 1666.51 421.851V418.811H1664.65C1653.33 418.8 1650.5 413.831 1650.5 401.29V340.24L1725.41 424.01ZM1722.51 394.06L1722.97 393.65L1722.51 394.06ZM1722.17 393.79V393.739L1722.05 393.63L1722.17 393.79Z" fill="white"/>
<path d="M1768.19 401.87C1766.78 406.76 1765.03 410.54 1765.03 413.11C1765.03 417.45 1771.1 418.15 1775.83 418.15H1777.44V422.5C1771.67 422.189 1765.75 421.93 1759.98 421.93C1754.77 421.93 1749.6 422.191 1744.43 422.5V418.15H1745.25C1750.9 418.15 1755.68 414.839 1757.81 408.77L1780.91 342.589C1782.77 337.249 1785.38 330.039 1786.22 324.69C1790.84 323.12 1796.6 320.24 1799.37 318.5C1799.78 318.351 1800.07 318.2 1800.51 318.2C1800.94 318.2 1801.21 318.2 1801.5 318.65C1801.94 319.79 1802.39 321.1 1802.82 322.25L1829.34 397.69C1831.07 402.73 1832.79 408.06 1834.69 412.4C1836.42 416.44 1839.46 418.15 1844.2 418.15H1845.08V422.5C1838.58 422.19 1832.09 421.931 1825.16 421.931C1818.11 421.931 1810.89 422.191 1803.53 422.5V418.15H1805.14C1808.42 418.15 1814.08 417.59 1814.08 413.98C1814.08 412.11 1812.77 408.22 1811.16 403.59L1805.56 386.86H1772.82L1768.19 401.87ZM1789.27 337.97H1788.98L1775.55 378.79H1802.54L1789.27 337.97Z" fill="white"/>
<path d="M1845.02 423.111C1838.53 422.851 1832.05 422.531 1825.16 422.531C1818.13 422.531 1810.91 422.851 1803.55 423.111L1802.91 423.151V422.491V417.531H1803.53H1805.1C1808.46 417.531 1813.43 416.751 1813.44 413.981C1813.47 412.34 1812.17 408.411 1810.56 403.791L1805.08 387.481H1773.25L1768.79 402.05C1767.35 406.99 1765.63 410.78 1765.66 413.111C1765.66 416.651 1771.06 417.531 1775.83 417.531H1778.03V418.151V423.151L1777.39 423.111C1771.62 422.851 1765.72 422.531 1759.98 422.531C1754.81 422.531 1749.63 422.851 1744.43 423.111L1743.8 423.151V422.491V417.531H1744.43H1745.25C1750.63 417.51 1755.13 414.421 1757.23 408.571L1780.31 342.381C1782.15 337.031 1784.75 329.841 1786.03 324.111C1790.56 322.541 1796.35 319.661 1799.15 317.9C1799.53 317.77 1799.92 317.6 1800.51 317.6C1800.89 317.56 1801.63 317.65 1802.09 318.44C1802.52 319.571 1802.94 320.88 1803.42 322.05L1829.94 397.481C1831.66 402.541 1833.39 407.871 1835.26 412.161C1836.95 415.981 1839.58 417.491 1844.18 417.531H1845.68V418.151V423.151L1845.02 423.111ZM1804.15 421.84C1811.28 421.57 1818.3 421.29 1825.16 421.29C1831.87 421.29 1838.16 421.57 1844.44 421.82L1844.42 418.809H1844.18C1839.3 418.82 1835.89 416.9 1834.1 412.65C1832.2 408.27 1830.48 402.92 1828.76 397.889L1802.22 322.45C1801.79 321.3 1801.35 319.99 1801 319.01C1800.88 318.83 1800.89 318.83 1800.78 318.83H1800.51C1800.21 318.83 1800.05 318.93 1799.7 319.03C1796.89 320.8 1791.11 323.679 1786.84 324.79C1785.95 330.25 1783.33 337.44 1781.47 342.79L1758.38 408.99C1756.19 415.25 1751.15 418.82 1745.25 418.809H1745.04V421.82C1750 421.57 1754.96 421.29 1759.98 421.29C1765.57 421.29 1771.26 421.57 1776.81 421.82V418.809H1775.83C1771.14 418.749 1764.56 418.24 1764.39 413.11C1764.42 410.25 1766.21 406.58 1767.6 401.69L1768.19 401.879L1767.6 401.669L1772.35 386.249H1805.98L1811.76 403.389C1813.35 408.03 1814.66 411.86 1814.66 413.98C1814.45 418.41 1808.4 418.719 1805.1 418.809H1804.15V421.84H1804.15ZM1774.69 379.401L1788.52 337.34H1788.96H1789.27V337.97L1789.12 338L1789.27 337.97V337.34H1789.72L1803.35 379.401H1774.69ZM1776.42 378.16H1801.64L1789.1 339.53L1776.42 378.16ZM1788.67 338.151L1788.96 338.041L1788.67 338.151Z" fill="white"/>
<path d="M1881.42 408.36C1881.42 414.131 1885.42 415.85 1890.04 416.44C1895.95 416.88 1902.44 416.88 1909.1 416.15C1915.14 415.421 1920.34 411.961 1922.92 408.36C1925.22 405.18 1926.52 401.14 1927.39 397.97H1931.57C1929.99 406.19 1927.97 414.29 1926.23 422.5C1913.57 422.5 1900.85 421.93 1888.18 421.93C1875.47 421.93 1862.8 422.5 1850.11 422.5V418.149H1852.09C1857.31 418.149 1862.95 417.45 1862.95 408.5V334.38C1862.95 326.859 1857.31 326.15 1852.09 326.15H1850.11V321.82C1857.73 321.82 1865.24 322.39 1872.87 322.39C1880.25 322.39 1887.45 321.82 1894.81 321.82V326.15H1891.18C1885.72 326.15 1881.42 326.31 1881.42 333.93V408.36V408.36Z" fill="white"/>
<path d="M1926.23 423.111C1913.52 423.111 1900.83 422.531 1888.18 422.531C1875.48 422.531 1862.79 423.111 1850.08 423.111H1849.47V422.491V417.531H1850.08H1852.09C1857.32 417.411 1862.26 417.051 1862.32 408.501V334.352C1862.26 327.342 1857.35 326.862 1852.09 326.761H1849.47V326.152V321.202H1850.08C1857.75 321.202 1865.26 321.752 1872.88 321.752C1880.2 321.752 1887.4 321.202 1894.81 321.202H1895.4V321.822V326.761H1894.81H1891.19C1885.6 326.921 1882.12 326.661 1882.01 333.932V408.362C1882.05 413.732 1885.57 415.182 1890.07 415.812C1892.62 415.992 1895.29 416.102 1898.07 416.102C1901.6 416.102 1905.27 415.932 1908.99 415.532C1914.87 414.843 1919.93 411.452 1922.41 408.012C1924.63 404.932 1925.91 400.972 1926.77 397.822L1926.9 397.343H1927.38H1932.33L1932.2 398.103C1930.57 406.353 1928.59 414.413 1926.84 422.623L1926.72 423.113H1926.23H1926.23V423.111ZM1925.71 421.851C1927.38 414.031 1929.27 406.38 1930.82 398.58H1927.86C1926.96 401.72 1925.68 405.59 1923.41 408.74C1920.72 412.48 1915.38 416 1909.13 416.77C1905.35 417.16 1901.61 417.36 1898.07 417.36C1895.28 417.36 1892.57 417.23 1889.96 417.049C1885.27 416.529 1880.72 414.529 1880.74 408.36V333.93C1880.74 325.92 1885.81 325.51 1891.19 325.51H1894.17V322.45C1887.06 322.49 1880.06 323.019 1872.88 323.019C1865.41 323.019 1858.11 322.49 1850.71 322.45V325.51H1852.09C1857.24 325.51 1863.54 326.41 1863.54 334.35V408.5C1863.54 417.83 1857.27 418.8 1852.09 418.8H1850.71V421.85C1863.18 421.84 1875.65 421.3 1888.18 421.3C1900.71 421.3 1913.23 421.84 1925.71 421.851Z" fill="white"/>
<path d="M372.69 504C510.44 504.659 636.17 391.659 636.17 254.19C636.17 103.86 510.44 -0.0500125 372.69 -1.2481e-05H254.14C114.74 -0.0500125 0 103.891 0 254.19C0 391.689 114.74 504.66 254.14 504H372.69Z" fill="#0079BE"/>
<path d="M254.701 20.83C127.321 20.87 24.101 124.12 24.071 251.551C24.101 378.96 127.32 482.2 254.701 482.24C382.111 482.2 485.352 378.96 485.37 251.551C485.351 124.12 382.111 20.87 254.701 20.83ZM108.511 251.551C108.631 189.281 147.521 136.181 202.361 115.08V387.99C147.521 366.901 108.63 313.83 108.511 251.551ZM307.021 388.05V115.071C361.881 136.121 400.831 189.251 400.931 251.551C400.831 313.87 361.881 366.96 307.021 388.05Z" fill="white"/>
<path d="M716.953 108.431C716.953 84.59 704.522 86.16 692.602 85.901V79.011C702.932 79.521 713.522 79.521 723.873 79.521C735.003 79.521 750.113 79.011 769.732 79.011C838.352 79.011 875.722 124.851 875.722 171.79C875.722 198.04 860.363 264.03 766.542 264.03C753.032 264.03 740.562 263.509 728.112 263.509C716.192 263.509 704.522 263.77 692.601 264.03V257.15C708.492 255.549 716.192 255.02 716.952 236.99V108.431H716.953ZM742.933 232.76C742.933 253.17 757.523 255.55 770.503 255.55C827.763 255.55 846.563 212.34 846.563 172.84C846.563 123.29 814.753 87.51 763.614 87.51C752.734 87.51 747.734 88.29 742.934 88.571L742.933 232.76Z" fill="white"/>
<path d="M885.022 257.151H890.042C897.452 257.151 902.763 257.151 902.763 248.38V176.561C902.763 164.912 898.792 163.291 888.983 158.021V153.771C901.433 150.031 916.294 145.031 917.333 144.231C919.203 143.171 920.783 142.891 922.113 142.891C923.424 142.891 923.973 144.491 923.973 146.621V248.38C923.973 257.151 929.803 257.151 937.223 257.151H941.723V264.041C932.702 264.041 923.423 263.512 913.903 263.512C904.363 263.512 894.813 263.772 885.023 264.041V257.151H885.022ZM913.372 102.08C906.473 102.08 900.393 95.721 900.393 88.83C900.393 82.19 906.753 76.08 913.372 76.08C920.242 76.08 926.362 81.671 926.362 88.83C926.362 95.99 920.513 102.08 913.372 102.08Z" fill="white"/>
<path d="M966.901 178.141C966.901 168.341 963.97 165.701 951.541 160.661V155.632C962.931 151.922 973.782 148.472 986.51 142.892C987.301 142.892 988.08 143.432 988.08 145.542V162.781C1003.21 151.922 1016.2 142.891 1033.98 142.891C1056.48 142.891 1064.43 159.33 1064.43 180V248.381C1064.43 257.151 1070.26 257.151 1077.69 257.151H1082.46V264.041C1073.16 264.041 1063.89 263.512 1054.37 263.512C1044.82 263.512 1035.27 263.772 1025.74 264.041V257.151H1030.5C1037.94 257.151 1043.21 257.151 1043.21 248.381V179.75C1043.21 164.62 1033.98 157.21 1018.85 157.21C1010.38 157.21 996.859 164.101 988.079 169.94V248.379C988.079 257.15 993.938 257.15 1001.37 257.15H1006.13V264.04C996.859 264.04 987.569 263.51 978.03 263.51C968.499 263.51 958.94 263.771 949.409 264.04V257.15H954.189C961.609 257.15 966.899 257.15 966.899 248.379V178.141H966.901Z" fill="white"/>
<path d="M1102.61 190.88C1102.06 193.271 1102.06 197.24 1102.61 206.26C1104.17 231.43 1120.38 252.101 1141.55 252.101C1156.14 252.101 1167.56 244.151 1177.35 234.351L1181.05 238.071C1168.85 254.231 1153.75 268.01 1132.03 268.01C1089.88 268.01 1081.4 227.18 1081.4 210.231C1081.4 158.27 1116.38 142.89 1134.92 142.89C1156.4 142.89 1179.47 156.401 1179.72 184.5C1179.72 186.11 1179.72 187.68 1179.47 189.29L1177.07 190.88H1102.61ZM1149.53 182.391C1156.14 182.391 1156.92 178.941 1156.92 175.771C1156.92 162.25 1148.71 151.38 1133.86 151.38C1117.71 151.38 1106.58 163.29 1103.4 182.391H1149.53Z" fill="white"/>
<path d="M1185.82 257.151H1192.98C1200.38 257.151 1205.68 257.151 1205.68 248.38V173.91C1205.68 165.7 1195.89 164.1 1191.9 161.98V158.02C1211.25 149.79 1221.86 142.89 1224.27 142.89C1225.84 142.89 1226.62 143.69 1226.62 146.35V170.2H1227.18C1233.79 159.87 1244.94 142.89 1261.09 142.89C1267.72 142.89 1276.19 147.39 1276.19 156.94C1276.19 164.1 1271.17 170.48 1263.75 170.48C1255.5 170.48 1255.5 164.1 1246.24 164.1C1241.73 164.1 1226.9 170.2 1226.9 186.11V248.38C1226.9 257.15 1232.19 257.15 1239.62 257.15H1254.45V264.041C1239.87 263.77 1228.78 263.511 1217.36 263.511C1206.5 263.511 1195.36 263.771 1185.82 264.041V257.151H1185.82Z" fill="white"/>
<path d="M1287.86 227.18C1291.31 244.68 1301.9 259.531 1321.26 259.531C1336.86 259.531 1342.7 249.991 1342.7 240.711C1342.7 209.431 1284.94 219.501 1284.94 176.831C1284.94 161.981 1296.88 142.891 1326.02 142.891C1334.49 142.891 1345.88 145.291 1356.21 150.601L1358.09 177.612H1351.98C1349.34 160.931 1340.07 151.382 1323.09 151.382C1312.49 151.382 1302.43 157.483 1302.43 168.872C1302.43 199.912 1363.91 190.342 1363.91 231.952C1363.91 249.442 1349.86 268.012 1318.32 268.012C1307.72 268.012 1295.27 264.302 1286 259.012L1283.08 228.523L1287.86 227.18Z" fill="white"/>
<path d="M1603.22 126.99H1596.61C1591.57 95.99 1569.57 83.52 1539.9 83.52C1509.4 83.52 1465.14 103.919 1465.14 167.53C1465.14 221.11 1503.33 259.529 1544.13 259.529C1570.36 259.529 1592.11 241.509 1597.41 213.67L1603.49 215.25L1597.41 253.949C1586.28 260.859 1556.33 268.01 1538.82 268.01C1476.82 268.01 1437.61 227.981 1437.61 168.34C1437.61 114 1486.1 75.02 1538.04 75.02C1559.5 75.02 1580.17 81.94 1600.58 89.1L1603.22 126.99Z" fill="white"/>
<path d="M1612.78 257.151H1617.8C1625.23 257.151 1630.55 257.151 1630.55 248.38V100.761C1630.55 83.521 1626.57 82.99 1616.49 80.08V75.84C1627.09 72.401 1638.22 67.62 1643.79 64.431C1646.68 62.851 1648.82 61.51 1649.6 61.51C1651.22 61.51 1651.75 63.111 1651.75 65.24V248.38C1651.75 257.151 1657.57 257.151 1665 257.151H1669.47V264.041C1660.5 264.041 1651.22 263.511 1641.67 263.511C1632.14 263.511 1622.6 263.772 1612.78 264.041V257.151H1612.78Z" fill="white"/>
<path d="M1782.95 249.441C1782.95 254.231 1785.85 254.491 1790.35 254.491C1793.54 254.491 1797.5 254.231 1800.96 254.231V259.811C1789.55 260.861 1767.82 266.431 1762.78 268.011L1761.45 267.21V245.761C1745.57 258.74 1733.36 268.011 1714.53 268.011C1700.22 268.011 1685.38 258.74 1685.38 236.49V168.61C1685.38 161.72 1684.33 155.089 1669.51 153.77V148.73C1679.06 148.47 1700.22 146.879 1703.68 146.879C1706.62 146.879 1706.62 148.73 1706.62 154.56V222.929C1706.62 230.9 1706.62 253.689 1729.66 253.689C1738.67 253.689 1750.59 246.799 1761.71 237.549V166.209C1761.71 160.929 1749 158.019 1739.48 155.358V150.588C1763.3 148.988 1778.17 146.878 1780.8 146.878C1782.95 146.878 1782.95 148.728 1782.95 151.658V249.441H1782.95Z" fill="white"/>
<path d="M1835.68 161.981C1846.27 152.97 1860.58 142.891 1875.17 142.891C1905.92 142.891 1924.45 169.691 1924.45 198.56C1924.45 233.281 1899.02 268.01 1861.1 268.01C1841.5 268.01 1831.17 261.64 1824.27 258.739L1816.33 264.819L1810.78 261.92C1813.13 246.28 1814.48 230.9 1814.48 214.74V100.76C1814.48 83.521 1810.48 82.99 1800.42 80.08V75.84C1811.05 72.401 1822.15 67.62 1827.72 64.43C1830.64 62.85 1832.75 61.51 1833.57 61.51C1835.15 61.51 1835.68 63.111 1835.68 65.24V161.98H1835.68V161.981ZM1835.68 234.071C1835.68 244.151 1845.21 261.131 1862.97 261.131C1891.33 261.131 1903.25 233.281 1903.25 209.682C1903.25 181.062 1881.54 157.212 1860.86 157.212C1851.03 157.212 1842.83 163.582 1835.68 169.691V234.071H1835.68Z" fill="white"/>
<path d="M692.299 418.15H694.329C699.509 418.15 704.989 417.451 704.989 409.94V334.38C704.989 326.859 699.509 326.15 694.329 326.15H692.299V321.82C697.929 321.82 706.579 322.39 713.669 322.39C720.869 322.39 729.509 321.82 736.289 321.82V326.15H734.259C729.089 326.15 723.6 326.86 723.6 334.38V409.94C723.6 417.451 729.089 418.15 734.259 418.15H736.289V422.501C729.369 422.501 720.699 421.931 713.509 421.931C706.44 421.931 697.929 422.501 692.299 422.501V418.15Z" fill="white"/>
<path d="M736.293 423.111C729.323 423.111 720.684 422.531 713.503 422.531C706.453 422.531 697.974 423.111 692.303 423.111H691.684V422.491V418.161V417.531H692.303H694.324C699.553 417.411 704.314 416.991 704.364 409.941V334.38C704.314 327.33 699.554 326.859 694.324 326.76H691.684V326.151V321.18H692.303C697.974 321.18 706.614 321.75 713.663 321.75C720.843 321.75 729.474 321.18 736.293 321.18H736.934V321.84V326.76H736.293H734.273C729.043 326.86 724.252 327.33 724.223 334.38V409.941C724.252 416.991 729.042 417.411 734.273 417.531H736.933V418.161V423.111H736.293ZM735.673 421.88V418.8H734.274C729.124 418.8 722.994 417.91 722.963 409.941V334.38C722.993 326.41 729.123 325.51 734.274 325.51H735.673V322.45C729.013 322.45 720.663 323.01 713.663 323.01C706.813 323.01 698.523 322.49 692.943 322.45V325.51H694.323C699.463 325.51 705.613 326.41 705.613 334.38V409.941C705.613 417.911 699.463 418.8 694.323 418.8H692.943V421.88C698.523 421.82 706.672 421.3 713.503 421.3C720.523 421.3 728.873 421.84 735.673 421.88Z" fill="white"/>
<path d="M835.363 394.07L835.652 393.79V339.71C835.652 327.87 827.423 326.15 823.103 326.15H819.922V321.819C826.712 321.819 833.342 322.389 840.112 322.389C846.021 322.389 851.962 321.819 857.862 321.819V326.15H855.702C849.632 326.15 842.852 327.299 842.852 344.46V410.1C842.852 415.141 843.001 420.18 843.711 424.651H838.222L763.972 341.861V401.291C763.972 413.841 766.402 418.151 777.522 418.151H779.961V422.501C773.772 422.501 767.581 421.931 761.371 421.931C754.901 421.931 748.262 422.501 741.762 422.501V418.151H743.782C753.732 418.151 756.753 411.39 756.753 399.861V339.111C756.753 331.041 750.103 326.151 743.643 326.151H741.763V321.821C747.242 321.821 752.863 322.39 758.333 322.39C762.662 322.39 766.853 321.821 771.172 321.821L835.363 394.07Z" fill="white"/>
<path d="M843.708 425.281L837.759 425.06L764.578 343.491V401.291C764.748 413.831 766.658 417.392 777.518 417.531H780.608V418.151V423.111H779.968C773.728 423.111 767.518 422.531 761.367 422.531C754.907 422.531 748.287 423.111 741.747 423.111H741.117V422.491V417.531H741.747H743.777C753.307 417.481 756.027 411.361 756.137 399.861V339.121C756.116 331.441 749.817 326.781 743.637 326.761H741.116V326.121V321.201H741.746C747.257 321.201 752.906 321.751 758.316 321.751C762.606 321.751 766.787 321.201 771.646 321.411L835.026 392.762V339.722C834.946 328.242 827.297 326.862 823.096 326.761H819.276V326.121V321.201H819.916C826.727 321.201 833.366 321.751 840.106 321.751C845.976 321.751 851.886 321.201 857.846 321.201H858.476V321.821V326.76H857.846H855.696C849.746 326.931 843.636 327.45 843.467 344.46V410.09C843.467 415.13 843.616 420.17 844.317 424.54L844.457 425.28H843.708V425.281ZM838.229 424.01H842.999C842.35 419.68 842.239 414.88 842.239 410.09V344.46C842.239 327.15 849.489 325.511 855.699 325.511H857.219V322.45C851.539 322.49 845.839 323.01 840.11 323.01C833.51 323.01 827.09 322.49 820.56 322.45L820.55 325.511H823.1C827.53 325.511 836.28 327.49 836.28 339.721L836.08 394.22L835.79 394.521L835.301 394.971L771.17 322.45C766.891 322.45 762.71 323.01 758.32 323.01C753.03 323.01 747.62 322.49 742.39 322.45L742.36 325.51H743.64C750.41 325.51 757.36 330.68 757.36 339.12V399.86C757.36 411.389 754.15 418.769 743.78 418.809L742.39 418.769V421.879C748.64 421.819 755.06 421.299 761.369 421.299C767.39 421.299 773.38 421.82 779.339 421.879V418.809H777.52C766.169 418.769 763.35 413.83 763.339 401.289V340.239L838.229 424.01ZM835.358 394.06L835.818 393.64L835.358 394.06ZM835.028 393.781V393.731L834.908 393.63L835.028 393.781Z" fill="white"/>
<path d="M879.449 329.02C868.619 329.02 868.209 331.621 866.049 342.14H861.719C862.289 338.11 863.009 334.08 863.449 329.88C864.028 325.84 864.308 321.819 864.308 317.64H867.778C868.938 321.97 872.539 321.82 876.449 321.82H950.839C954.738 321.82 958.339 321.68 958.639 317.341L962.078 317.921C961.518 321.82 960.938 325.711 960.498 329.61C960.238 333.501 960.238 337.4 960.238 341.28L955.898 342.89C955.598 337.56 954.878 329.02 945.228 329.02H921.578V405.76C921.578 416.88 926.629 418.151 933.528 418.151H936.278V422.501C930.658 422.501 920.549 421.931 912.778 421.931C904.129 421.931 894.018 422.501 888.388 422.501V418.151H891.138C899.088 418.151 903.108 417.44 903.108 406.06V329.02H879.449V329.02Z" fill="white"/>
<path d="M936.301 423.111C930.62 423.111 920.53 422.531 912.78 422.531C904.14 422.531 894.051 423.111 888.39 423.111H887.79V422.501V417.531H888.39H891.14C899.09 417.341 902.289 417.241 902.47 406.06V329.651H879.45V329.02V328.38H903.721V406.06C903.721 417.63 899.061 418.8 891.141 418.81H889.021V421.85C894.711 421.821 904.411 421.3 912.781 421.3C920.302 421.3 929.941 421.821 935.641 421.85V418.81H933.531C926.561 418.8 920.951 417.09 920.951 405.76V328.38H945.231C954.911 328.42 956.171 336.65 956.491 342L959.601 340.85C959.601 337.09 959.621 333.32 959.881 329.52C960.301 325.81 960.831 322.13 961.371 318.45L959.17 318.08C958.501 322.28 954.45 322.49 950.82 322.45H876.45H875.7C872.31 322.45 868.6 322.29 867.31 318.261H864.93C864.909 322.251 864.629 326.121 864.079 329.96C863.659 333.921 862.999 337.731 862.459 341.541H865.55C867.449 331.49 868.69 328.23 879.449 328.381V329.021V329.651C868.789 329.841 869.01 331.641 866.659 342.301L866.55 342.791H866.05H861L861.08 342.041C861.66 338.001 862.391 333.98 862.82 329.78C863.42 325.78 863.7 321.78 863.7 317.64V317.01H864.31H868.27L868.37 317.46C869.36 321.1 872.03 321.12 875.7 321.18H876.45H950.82C954.841 321.12 957.76 321.06 958.01 317.289L958.07 316.609L958.72 316.749L962.79 317.39L962.699 318.02C962.119 321.88 961.55 325.78 961.13 329.65C960.84 333.49 960.84 337.39 960.84 341.28V341.73L960.44 341.89L955.33 343.749L955.291 342.909C954.91 337.489 954.34 329.649 945.23 329.649H922.21V405.759C922.34 416.639 926.659 417.389 933.529 417.529H936.909V418.149V423.109L936.301 423.111Z" fill="white"/>
<path d="M966.691 418.15H968.721C973.902 418.15 979.39 417.451 979.39 409.94V334.38C979.39 326.859 973.902 326.15 968.721 326.15H966.691V321.82C975.471 321.82 990.492 322.39 1002.58 322.39C1014.72 322.39 1029.69 321.82 1039.49 321.82C1039.25 328.01 1039.38 337.55 1039.81 343.881L1035.46 345.04C1034.77 335.671 1033.04 328.181 1017.89 328.181H997.861V365.951H1015C1023.65 365.951 1025.54 361.061 1026.39 353.252H1030.71C1030.43 358.901 1030.28 364.522 1030.28 370.142C1030.28 375.632 1030.43 381.102 1030.71 386.582L1026.39 387.441C1025.54 378.792 1025.1 373.171 1015.14 373.171H997.862V406.761C997.862 416.151 1006.19 416.151 1015.43 416.151C1032.74 416.151 1040.37 414.981 1044.7 398.561L1048.74 399.551C1046.85 407.211 1045.13 414.841 1043.85 422.501C1034.61 422.501 1018.02 421.931 1005.06 421.931C992.061 421.931 974.913 422.501 966.691 422.501V418.15V418.15Z" fill="white"/>
<path d="M1043.84 423.111C1034.58 423.111 1018 422.52 1005.05 422.52C992.059 422.52 974.918 423.111 966.688 423.111H966.079V422.501V418.151V417.531H966.688H968.709C973.938 417.451 978.678 416.991 978.749 409.941V334.38C978.679 327.34 973.938 326.87 968.709 326.76H966.079V326.151V321.201H966.688C975.488 321.201 990.488 321.751 1002.58 321.751C1014.71 321.751 1029.67 321.201 1039.49 321.201H1040.14L1040.11 321.841C1040.01 324.011 1039.97 326.57 1039.97 329.291C1039.97 334.28 1040.11 339.73 1040.4 343.841L1040.42 344.361L1039.94 344.502L1034.87 345.822L1034.84 345.082C1033.99 335.722 1032.74 328.932 1017.89 328.792H998.46L998.439 365.302H1015C1023.3 365.222 1024.79 360.972 1025.77 353.202L1025.82 352.632H1026.38H1031.35L1031.34 353.281C1031.06 358.901 1030.88 364.521 1030.88 370.141C1030.88 375.601 1031.06 381.071 1031.34 386.561L1031.35 387.072L1030.83 387.191L1025.82 388.191L1025.77 387.511C1024.78 378.711 1024.71 373.891 1015.13 373.782L998.459 373.771V406.761C998.471 415.521 1006.03 415.471 1015.43 415.521C1032.79 415.421 1039.75 414.582 1044.1 398.381L1044.24 397.801L1044.85 397.911L1049.47 399.1L1049.33 399.701C1047.47 407.341 1045.74 414.961 1044.45 422.6L1044.33 423.111H1043.84V423.111ZM1043.31 421.851C1044.56 414.58 1046.21 407.281 1047.98 400.02L1045.13 399.3C1040.81 415.441 1032.45 416.88 1015.43 416.771C1006.35 416.771 997.248 416.771 997.207 406.76V372.54H1015.13C1025.2 372.43 1026.23 378.51 1026.94 386.72L1030.06 386.071C1029.78 380.76 1029.65 375.43 1029.65 370.14C1029.65 364.71 1029.78 359.311 1030.06 353.88H1026.94C1026.14 361.39 1023.79 366.67 1015 366.57H997.208V327.53H1017.89C1032.89 327.429 1035.38 335.17 1036.02 344.24L1039.13 343.4C1038.88 339.33 1038.71 334.11 1038.71 329.29C1038.71 326.82 1038.77 324.49 1038.85 322.45C1029.05 322.49 1014.45 323.01 1002.58 323.01C990.729 323.01 976.14 322.49 967.309 322.45V325.51H968.708C973.848 325.51 979.989 326.41 980.008 334.38V409.941C979.988 417.891 973.848 418.771 968.708 418.811H967.309V421.851C975.72 421.84 992.38 421.301 1005.05 421.301C1017.77 421.301 1034.01 421.84 1043.31 421.851Z" fill="white"/>
<path d="M1068.2 337.1C1068.2 326.58 1062.44 326.15 1057.95 326.15H1055.36V321.81C1059.98 321.81 1068.91 322.39 1077.71 322.39C1086.36 322.39 1093.29 321.81 1100.92 321.81C1119.08 321.81 1135.25 326.72 1135.25 347.22C1135.25 360.17 1126.6 368.11 1115.21 372.6L1139.86 409.5C1143.9 415.6 1146.77 417.31 1153.85 418.149V422.5C1149.09 422.5 1144.47 421.93 1139.72 421.93C1135.25 421.93 1130.62 422.5 1126.17 422.5C1115.07 407.93 1105.53 392.35 1096.16 375.75H1086.67V406.63C1086.67 417.75 1091.84 418.15 1098.47 418.15H1101.07V422.501C1092.83 422.501 1084.5 421.931 1076.27 421.931C1069.34 421.931 1062.56 422.501 1055.36 422.501V418.15H1057.95C1063.31 418.15 1068.2 415.73 1068.2 410.38V337.1V337.1ZM1086.67 370.56H1093.71C1108.14 370.56 1115.91 365.081 1115.91 348.06C1115.91 335.24 1107.7 327.01 1094.85 327.01C1090.52 327.01 1088.68 327.46 1086.67 327.59V370.56H1086.67Z" fill="white"/>
<path d="M1153.85 423.111C1149.02 423.111 1144.43 422.531 1139.69 422.531C1135.29 422.531 1130.69 423.111 1125.66 422.871C1114.6 408.361 1105.12 392.871 1095.8 376.391H1087.28V406.612C1087.43 417.462 1091.79 417.372 1098.46 417.532H1101.69V418.152V423.112H1101.05C1092.81 423.112 1084.44 422.532 1076.25 422.532C1069.36 422.532 1062.6 423.112 1055.36 423.112H1054.73V422.492V417.532H1055.36H1057.95C1063.15 417.502 1067.53 415.242 1067.55 410.382V337.103C1067.44 326.863 1062.43 326.922 1057.95 326.773H1054.73V326.153V321.183H1055.36C1060.03 321.183 1068.93 321.752 1077.71 321.752C1086.32 321.752 1093.25 321.183 1100.93 321.183C1119.1 321.223 1135.84 326.243 1135.89 347.183C1135.89 360.213 1127.28 368.342 1116.15 372.883L1140.38 409.162C1144.41 415.142 1146.92 416.633 1153.94 417.532L1154.47 417.612V418.152V423.112H1153.85V423.111ZM1086.65 375.13H1096.51L1096.68 375.45C1106.08 392.02 1115.55 407.58 1126.17 421.88C1130.57 421.88 1135.2 421.29 1139.69 421.29C1144.3 421.29 1148.74 421.79 1153.23 421.86V418.7C1146.46 417.86 1143.29 415.84 1139.35 409.85L1114.26 372.299L1114.97 372.009C1126.25 367.57 1134.6 359.86 1134.61 347.179C1134.6 327.169 1119.06 322.53 1100.93 322.45C1093.32 322.45 1086.4 323.02 1077.71 323.02C1069.24 323.02 1060.69 322.49 1055.97 322.45V325.51H1057.95C1062.43 325.521 1068.81 326.26 1068.81 337.101V410.38C1068.81 416.17 1063.38 418.81 1057.95 418.82H1055.97V421.859C1062.91 421.839 1069.48 421.29 1076.25 421.29C1084.32 421.29 1092.45 421.84 1100.43 421.859V418.82H1098.46C1091.88 418.809 1086.02 417.99 1086.02 406.61V375.13H1086.65H1086.65ZM1086.65 371.17H1086.02V327.01L1086.57 326.96C1088.54 326.811 1090.49 326.4 1094.85 326.4C1107.99 326.4 1116.53 334.94 1116.55 348.089C1116.51 365.309 1108.25 371.159 1093.71 371.169H1086.65V371.17ZM1093.71 369.931C1107.99 369.81 1115.17 364.851 1115.32 348.09C1115.24 335.49 1107.41 327.67 1094.85 327.62C1090.95 327.62 1089.12 327.98 1087.28 328.141V369.931H1093.71V369.931Z" fill="white"/>
<path d="M1251.76 394.07L1252.02 393.79V339.71C1252.02 327.87 1243.81 326.15 1239.49 326.15H1236.33V321.819C1243.1 321.819 1249.72 322.389 1256.51 322.389C1262.43 322.389 1268.32 321.819 1274.27 321.819V326.15H1272.1C1266.04 326.15 1259.26 327.299 1259.26 344.46V410.1C1259.26 415.141 1259.4 420.18 1260.11 424.651H1254.64L1180.38 341.861V401.291C1180.38 413.841 1182.83 418.151 1193.93 418.151H1196.38V422.501C1190.19 422.501 1183.98 421.931 1177.79 421.931C1171.28 421.931 1164.65 422.501 1158.17 422.501V418.151H1160.17C1170.13 418.151 1173.16 411.39 1173.16 399.861V339.111C1173.16 331.041 1166.53 326.151 1160.05 326.151H1158.17V321.821C1163.63 321.821 1169.28 322.39 1174.75 322.39C1179.05 322.39 1183.25 321.821 1187.58 321.821L1251.76 394.07Z" fill="white"/>
<path d="M1260.12 425.27L1254.18 425.07L1180.99 343.491V401.281C1181.16 413.831 1183.06 417.39 1193.94 417.531H1196.99V418.151V423.111H1196.36C1190.12 423.111 1183.94 422.52 1177.76 422.52C1171.32 422.52 1164.66 423.111 1158.17 423.111H1157.52V422.501V417.531H1158.17H1160.17C1169.69 417.491 1172.42 411.361 1172.51 399.821V339.111C1172.5 331.43 1166.21 326.771 1160.05 326.76H1157.52V326.151V321.181H1158.17C1163.67 321.181 1169.31 321.75 1174.75 321.75C1178.99 321.75 1183.17 321.181 1188.01 321.38L1251.4 392.761V339.7C1251.36 328.24 1243.68 326.82 1239.49 326.761H1235.68V326.151V321.181H1236.31C1243.13 321.181 1249.77 321.75 1256.51 321.75C1262.39 321.75 1268.3 321.181 1274.24 321.181H1274.87V321.831V326.761H1274.24H1272.1C1266.15 326.921 1260.02 327.45 1259.87 344.461V410.09C1259.87 415.13 1260 420.13 1260.73 424.57L1260.81 425.27H1260.12ZM1254.64 424.01H1259.38C1258.75 419.68 1258.61 414.88 1258.61 410.09V344.46C1258.62 327.149 1265.92 325.55 1272.1 325.5H1273.61V322.45C1267.95 322.49 1262.24 323.01 1256.51 323.01C1249.89 323.01 1243.46 322.49 1236.93 322.45V325.5H1239.49C1243.93 325.55 1252.67 327.49 1252.67 339.7L1252.47 394.22L1252.19 394.52L1251.75 394.98L1187.57 322.451C1183.29 322.451 1179.11 323.011 1174.75 323.011C1169.41 323.011 1164.02 322.491 1158.77 322.451V325.501H1160.05C1166.82 325.551 1173.77 330.661 1173.77 339.111V399.82C1173.77 411.4 1170.51 418.77 1160.17 418.81L1158.77 418.8V421.85C1165 421.82 1171.43 421.3 1177.76 421.3C1183.81 421.3 1189.8 421.82 1195.76 421.85V418.81H1193.94C1182.58 418.8 1179.74 413.831 1179.72 401.28V340.26L1254.64 424.01ZM1251.76 394.06L1252.2 393.65L1251.76 394.06ZM1251.4 393.79V393.739L1251.29 393.63L1251.4 393.79Z" fill="white"/>
<path d="M1297.46 401.87C1296 406.76 1294.26 410.54 1294.26 413.11C1294.26 417.45 1300.33 418.15 1305.07 418.15H1306.68V422.5C1300.9 422.189 1295.01 421.93 1289.2 421.93C1284.01 421.93 1278.85 422.191 1273.65 422.5V418.15H1274.52C1280.14 418.15 1284.91 414.839 1287.04 408.77L1310.14 342.589C1312 337.249 1314.62 330.039 1315.49 324.69C1320.08 323.12 1325.86 320.24 1328.59 318.5C1329.04 318.351 1329.29 318.2 1329.74 318.2C1330.17 318.2 1330.45 318.2 1330.77 318.65C1331.19 319.79 1331.61 321.1 1332.07 322.25L1358.6 397.69C1360.33 402.73 1362.04 408.06 1363.91 412.4C1365.65 416.44 1368.69 418.15 1373.46 418.15H1374.31V422.5C1367.82 422.19 1361.32 421.931 1354.42 421.931C1347.35 421.931 1340.12 422.191 1332.77 422.5V418.15H1334.37C1337.68 418.15 1343.31 417.59 1343.31 413.98C1343.31 412.11 1342.01 408.22 1340.41 403.59L1334.79 386.86H1302.06L1297.46 401.87ZM1318.5 337.97H1318.21L1304.8 378.79H1331.75L1318.5 337.97Z" fill="white"/>
<path d="M1374.27 423.111C1367.78 422.821 1361.29 422.52 1354.42 422.52C1347.35 422.52 1340.17 422.821 1332.79 423.111L1332.14 423.151V422.501V417.511H1332.77H1334.36C1337.7 417.511 1342.66 416.751 1342.66 413.982C1342.7 412.341 1341.4 408.381 1339.81 403.792L1334.32 387.482H1302.51L1298.03 402.051C1296.57 406.971 1294.84 410.781 1294.85 413.131C1294.9 416.652 1300.29 417.511 1305.07 417.511H1307.29V418.161V423.151L1306.64 423.111C1300.87 422.821 1294.98 422.52 1289.23 422.52C1284.06 422.52 1278.86 422.821 1273.69 423.111L1273.02 423.151V422.501V417.511H1273.65H1274.51C1279.88 417.491 1284.36 414.442 1286.44 408.572L1309.53 342.382C1311.42 337.032 1314.02 329.842 1315.27 324.092C1319.79 322.562 1325.58 319.662 1328.36 317.902C1328.76 317.772 1329.16 317.572 1329.75 317.572C1330.1 317.562 1330.88 317.652 1331.34 318.413C1331.75 319.602 1332.2 320.883 1332.64 322.053L1359.2 397.484C1360.9 402.544 1362.62 407.874 1364.51 412.133C1366.18 415.984 1368.82 417.493 1373.46 417.513H1374.94V418.163V423.153L1374.27 423.111ZM1333.4 421.821C1340.54 421.571 1347.53 421.291 1354.42 421.291C1361.12 421.291 1367.39 421.571 1373.66 421.821V418.81H1373.46C1368.52 418.84 1365.11 416.901 1363.34 412.651C1361.46 408.271 1359.7 402.921 1358.01 397.871L1331.46 322.451C1331.02 321.301 1330.6 319.991 1330.22 318.971C1330.1 318.831 1330.13 318.831 1330.01 318.831H1329.75C1329.45 318.831 1329.28 318.921 1328.91 319.021C1326.13 320.831 1320.34 323.661 1316.07 324.791C1315.18 330.251 1312.59 337.451 1310.71 342.791L1287.63 408.991C1285.43 415.251 1280.38 418.821 1274.51 418.81H1274.28V421.821C1279.22 421.571 1284.22 421.291 1289.23 421.291C1294.8 421.291 1300.5 421.571 1306 421.821V418.81H1305.07C1300.38 418.75 1293.82 418.22 1293.64 413.13C1293.65 410.25 1295.42 406.561 1296.83 401.691L1297.46 401.88L1296.83 401.67L1301.58 386.25H1335.2L1340.99 403.391C1342.61 408.021 1343.92 411.861 1343.92 413.981C1343.72 418.411 1337.63 418.721 1334.36 418.811H1333.4V421.821H1333.4ZM1303.92 379.41L1317.73 337.34H1318.21H1318.51V337.97L1318.35 338L1318.51 337.97V337.34H1318.94L1332.63 379.41H1303.92ZM1305.65 378.16H1330.89L1318.34 339.51L1305.65 378.16ZM1317.88 338.151L1318.21 338.041L1317.88 338.151Z" fill="white"/>
<path d="M1380.65 329.02C1369.83 329.02 1369.4 331.621 1367.23 342.14H1362.9C1363.47 338.11 1364.2 334.08 1364.65 329.88C1365.23 325.84 1365.49 321.819 1365.49 317.64H1368.97C1370.12 321.97 1373.74 321.82 1377.61 321.82H1452.04C1455.91 321.82 1459.51 321.68 1459.81 317.341L1463.26 317.921C1462.71 321.82 1462.14 325.711 1461.7 329.61C1461.39 333.501 1461.39 337.4 1461.39 341.28L1457.07 342.89C1456.8 337.56 1456.08 329.02 1446.41 329.02H1422.76V405.76C1422.76 416.88 1427.82 418.151 1434.72 418.151H1437.46V422.501C1431.84 422.501 1421.76 421.931 1413.96 421.931C1405.32 421.931 1395.21 422.501 1389.59 422.501V418.151H1392.32C1400.27 418.151 1404.31 417.44 1404.31 406.06V329.02H1380.65V329.02Z" fill="white"/>
<path d="M1437.46 423.111C1431.8 423.111 1421.7 422.531 1413.96 422.531C1405.34 422.531 1395.24 423.111 1389.59 423.111H1388.95V422.501V417.531H1389.59H1392.32C1400.27 417.341 1403.46 417.241 1403.66 406.06L1403.64 329.651H1380.65V329.02V328.38H1404.91V406.06C1404.91 417.63 1400.24 418.77 1392.32 418.8H1390.2V421.88C1395.91 421.819 1405.59 421.3 1413.96 421.3C1421.49 421.3 1431.13 421.821 1436.83 421.88V418.8H1434.7C1427.77 418.77 1422.15 417.1 1422.13 405.76V328.38H1446.41C1456.09 328.42 1457.36 336.65 1457.63 342L1460.78 340.85C1460.78 337.09 1460.79 333.32 1461.07 329.54C1461.47 325.83 1462.01 322.13 1462.54 318.449L1460.36 318.079C1459.7 322.279 1455.63 322.51 1452.04 322.449H1377.61H1376.88C1373.48 322.489 1369.8 322.289 1368.49 318.239H1366.13C1366.09 322.239 1365.82 326.12 1365.25 329.96C1364.87 333.93 1364.16 337.75 1363.62 341.54H1366.71C1368.62 331.489 1369.87 328.229 1380.65 328.38V329.02V329.65C1369.96 329.831 1370.2 331.64 1367.84 342.3L1367.73 342.79H1367.23H1362.17L1362.26 342.069C1362.86 338 1363.58 333.979 1364 329.809C1364.59 325.779 1364.87 321.779 1364.87 317.639V317.009H1365.49H1369.43L1369.55 317.459C1370.56 321.099 1373.19 321.119 1376.88 321.179L1377.61 321.199H1452.04C1456.02 321.12 1458.93 321.059 1459.18 317.3L1459.22 316.61L1459.9 316.751L1463.99 317.391L1463.88 318.021C1463.29 321.881 1462.74 325.781 1462.3 329.651C1462.01 333.491 1462.01 337.401 1462.01 341.281V341.731L1461.6 341.891L1456.49 343.751L1456.46 342.91C1456.09 337.491 1455.52 329.65 1446.41 329.65H1423.38V405.76C1423.53 416.64 1427.84 417.39 1434.7 417.53H1438.08V418.15V423.11L1437.46 423.111Z" fill="white"/>
<path d="M1468.59 418.15H1470.61C1475.82 418.15 1481.27 417.451 1481.27 409.94V334.38C1481.27 326.859 1475.82 326.15 1470.61 326.15H1468.59V321.82C1474.22 321.82 1482.86 322.39 1489.91 322.39C1497.15 322.39 1505.8 321.82 1512.58 321.82V326.15H1510.56C1505.37 326.15 1499.87 326.86 1499.87 334.38V409.94C1499.87 417.451 1505.37 418.15 1510.56 418.15H1512.58V422.501C1505.65 422.501 1496.99 421.931 1489.8 421.931C1482.72 421.931 1474.22 422.501 1468.59 422.501V418.15Z" fill="white"/>
<path d="M1512.58 423.111C1505.61 423.111 1496.98 422.52 1489.79 422.52C1482.74 422.52 1474.22 423.111 1468.59 423.111H1467.96V422.501V418.151V417.531H1468.59H1470.61C1475.82 417.451 1480.6 417.001 1480.62 409.941V334.38C1480.6 327.34 1475.82 326.859 1470.61 326.76H1467.96V326.151V321.201H1468.59C1474.22 321.201 1482.88 321.751 1489.91 321.751C1497.1 321.751 1505.75 321.201 1512.58 321.201H1513.19V321.82V326.76H1512.58H1510.56C1505.29 326.86 1500.56 327.34 1500.49 334.38V409.941C1500.56 417.001 1505.29 417.451 1510.56 417.531H1513.19V418.151V423.111H1512.58ZM1511.93 421.851V418.8H1510.56C1505.39 418.8 1499.27 417.891 1499.27 409.941V334.38C1499.27 326.41 1505.39 325.51 1510.56 325.51H1511.93V322.45C1505.27 322.49 1496.94 323.01 1489.91 323.01C1483.08 323.01 1474.81 322.49 1469.22 322.45V325.51H1470.61C1475.74 325.51 1481.89 326.41 1481.9 334.38V409.941C1481.88 417.89 1475.74 418.8 1470.61 418.8H1469.22V421.851C1474.78 421.79 1482.94 421.3 1489.79 421.3C1496.78 421.3 1505.13 421.821 1511.93 421.851H1511.93Z" fill="white"/>
<path d="M1570.09 319.66C1600.83 319.66 1625.33 338.72 1625.33 369.43C1625.33 402.611 1601.54 424.66 1570.84 424.66C1540.24 424.66 1516.9 403.889 1516.9 372.88C1516.9 342.89 1540.1 319.66 1570.09 319.66ZM1572.27 418.31C1600.25 418.31 1605.12 393.63 1605.12 372.6C1605.12 351.52 1593.76 326 1569.81 326C1544.57 326 1537.08 348.5 1537.08 367.81C1537.08 393.63 1548.9 418.31 1572.27 418.31Z" fill="white"/>
<path d="M1516.25 372.88C1516.31 342.54 1539.79 319.07 1570.08 319.03V319.66V320.269C1540.44 320.269 1517.5 343.2 1517.47 372.879C1517.54 403.539 1540.55 423.999 1570.83 424.009C1601.23 423.999 1624.68 402.259 1624.73 369.4C1624.7 339.08 1600.57 320.309 1570.08 320.269V319.66V319.03C1601.06 319.05 1625.89 338.3 1625.95 369.4C1625.92 402.929 1601.82 425.21 1570.83 425.269C1539.99 425.209 1516.31 404.229 1516.25 372.879H1516.25V372.88ZM1536.45 367.81C1536.49 348.411 1544.07 325.35 1569.81 325.35C1594.29 325.411 1605.72 351.411 1605.76 372.6C1605.72 393.63 1600.77 418.911 1572.27 418.911V418.311V417.69C1599.69 417.651 1604.44 393.63 1604.51 372.6C1604.51 351.691 1593.25 326.661 1569.81 326.63C1545.07 326.66 1537.75 348.6 1537.7 367.81C1537.72 393.5 1549.43 417.63 1572.27 417.69V418.311V418.911C1548.33 418.88 1536.49 393.781 1536.45 367.81Z" fill="white"/>
<path d="M1722.51 394.07L1722.8 393.79V339.71C1722.8 327.87 1714.56 326.15 1710.23 326.15H1707.11V321.819C1713.87 321.819 1720.5 322.389 1727.26 322.389C1733.19 322.389 1739.1 321.819 1745.02 321.819V326.15H1742.84C1736.8 326.15 1730.01 327.299 1730.01 344.46V410.1C1730.01 415.141 1730.15 420.18 1730.88 424.651H1725.41L1651.13 341.861V401.291C1651.13 413.841 1653.57 418.151 1664.67 418.151H1667.14V422.501C1660.93 422.501 1654.74 421.931 1648.54 421.931C1642.05 421.931 1635.4 422.501 1628.91 422.501V418.151H1630.94C1640.91 418.151 1643.9 411.39 1643.9 399.861V339.111C1643.9 331.041 1637.3 326.151 1630.79 326.151H1628.91V321.821C1634.39 321.821 1640.02 322.39 1645.49 322.39C1649.82 322.39 1653.99 321.821 1658.33 321.821L1722.51 394.07Z" fill="white"/>
<path d="M1730.89 425.27L1724.92 425.06L1651.75 343.49V401.291C1651.91 413.831 1653.82 417.381 1664.65 417.511H1667.77V418.161V423.111H1667.14C1660.89 423.111 1654.7 422.531 1648.54 422.531C1642.07 422.531 1635.45 423.111 1628.9 423.111H1628.3V422.491V417.511H1628.9H1630.94C1640.45 417.482 1643.18 411.362 1643.3 399.861V339.111C1643.28 331.431 1636.99 326.771 1630.79 326.761H1628.3V326.151V321.201H1628.9C1634.43 321.201 1640.05 321.752 1645.49 321.752C1649.77 321.752 1653.93 321.201 1658.81 321.412L1722.17 392.762V339.722C1722.13 328.243 1714.45 326.862 1710.23 326.762H1706.44V326.153V321.203H1707.09C1713.88 321.203 1720.53 321.753 1727.24 321.753C1733.16 321.753 1739.04 321.203 1745.02 321.203H1745.64V321.822V326.762H1745.02H1742.83C1736.9 326.932 1730.77 327.472 1730.65 344.462V410.092C1730.65 415.132 1730.76 420.161 1731.46 424.571L1731.58 425.271H1730.89V425.27ZM1725.41 424.01H1730.13C1729.5 419.68 1729.39 414.88 1729.39 410.09V344.46C1729.39 327.12 1736.66 325.55 1742.84 325.5H1744.4V322.45C1738.71 322.49 1733.01 323.01 1727.24 323.01C1720.68 323.01 1714.23 322.49 1707.7 322.45V325.5H1710.23C1714.7 325.55 1723.4 327.521 1723.4 339.72L1723.24 394.22L1722.97 394.521L1722.51 394.98L1658.33 322.451C1654.08 322.451 1649.87 323.011 1645.49 323.011C1640.18 323.011 1634.77 322.491 1629.52 322.451V325.501H1630.79C1637.56 325.551 1644.53 330.661 1644.53 339.111V399.861C1644.53 411.391 1641.31 418.771 1630.94 418.811L1629.52 418.8V421.851C1635.78 421.821 1642.2 421.301 1648.54 421.301C1654.55 421.301 1660.52 421.821 1666.51 421.851V418.811H1664.65C1653.33 418.8 1650.5 413.831 1650.5 401.29V340.24L1725.41 424.01ZM1722.51 394.06L1722.97 393.65L1722.51 394.06ZM1722.17 393.79V393.739L1722.05 393.63L1722.17 393.79Z" fill="white"/>
<path d="M1768.19 401.87C1766.78 406.76 1765.03 410.54 1765.03 413.11C1765.03 417.45 1771.1 418.15 1775.83 418.15H1777.44V422.5C1771.67 422.189 1765.75 421.93 1759.98 421.93C1754.77 421.93 1749.6 422.191 1744.43 422.5V418.15H1745.25C1750.9 418.15 1755.68 414.839 1757.81 408.77L1780.91 342.589C1782.77 337.249 1785.38 330.039 1786.22 324.69C1790.84 323.12 1796.6 320.24 1799.37 318.5C1799.78 318.351 1800.07 318.2 1800.51 318.2C1800.94 318.2 1801.21 318.2 1801.5 318.65C1801.94 319.79 1802.39 321.1 1802.82 322.25L1829.34 397.69C1831.07 402.73 1832.79 408.06 1834.69 412.4C1836.42 416.44 1839.46 418.15 1844.2 418.15H1845.08V422.5C1838.58 422.19 1832.09 421.931 1825.16 421.931C1818.11 421.931 1810.89 422.191 1803.53 422.5V418.15H1805.14C1808.42 418.15 1814.08 417.59 1814.08 413.98C1814.08 412.11 1812.77 408.22 1811.16 403.59L1805.56 386.86H1772.82L1768.19 401.87ZM1789.27 337.97H1788.98L1775.55 378.79H1802.54L1789.27 337.97Z" fill="white"/>
<path d="M1845.02 423.111C1838.53 422.851 1832.05 422.531 1825.16 422.531C1818.13 422.531 1810.91 422.851 1803.55 423.111L1802.91 423.151V422.491V417.531H1803.53H1805.1C1808.46 417.531 1813.43 416.751 1813.44 413.981C1813.47 412.34 1812.17 408.411 1810.56 403.791L1805.08 387.481H1773.25L1768.79 402.05C1767.35 406.99 1765.63 410.78 1765.66 413.111C1765.66 416.651 1771.06 417.531 1775.83 417.531H1778.03V418.151V423.151L1777.39 423.111C1771.62 422.851 1765.72 422.531 1759.98 422.531C1754.81 422.531 1749.63 422.851 1744.43 423.111L1743.8 423.151V422.491V417.531H1744.43H1745.25C1750.63 417.51 1755.13 414.421 1757.23 408.571L1780.31 342.381C1782.15 337.031 1784.75 329.841 1786.03 324.111C1790.56 322.541 1796.35 319.661 1799.15 317.9C1799.53 317.77 1799.92 317.6 1800.51 317.6C1800.89 317.56 1801.63 317.65 1802.09 318.44C1802.52 319.571 1802.94 320.88 1803.42 322.05L1829.94 397.481C1831.66 402.541 1833.39 407.871 1835.26 412.161C1836.95 415.981 1839.58 417.491 1844.18 417.531H1845.68V418.151V423.151L1845.02 423.111ZM1804.15 421.84C1811.28 421.57 1818.3 421.29 1825.16 421.29C1831.87 421.29 1838.16 421.57 1844.44 421.82L1844.42 418.809H1844.18C1839.3 418.82 1835.89 416.9 1834.1 412.65C1832.2 408.27 1830.48 402.92 1828.76 397.889L1802.22 322.45C1801.79 321.3 1801.35 319.99 1801 319.01C1800.88 318.83 1800.89 318.83 1800.78 318.83H1800.51C1800.21 318.83 1800.05 318.93 1799.7 319.03C1796.89 320.8 1791.11 323.679 1786.84 324.79C1785.95 330.25 1783.33 337.44 1781.47 342.79L1758.38 408.99C1756.19 415.25 1751.15 418.82 1745.25 418.809H1745.04V421.82C1750 421.57 1754.96 421.29 1759.98 421.29C1765.57 421.29 1771.26 421.57 1776.81 421.82V418.809H1775.83C1771.14 418.749 1764.56 418.24 1764.39 413.11C1764.42 410.25 1766.21 406.58 1767.6 401.69L1768.19 401.879L1767.6 401.669L1772.35 386.249H1805.98L1811.76 403.389C1813.35 408.03 1814.66 411.86 1814.66 413.98C1814.45 418.41 1808.4 418.719 1805.1 418.809H1804.15V421.84H1804.15ZM1774.69 379.401L1788.52 337.34H1788.96H1789.27V337.97L1789.12 338L1789.27 337.97V337.34H1789.72L1803.35 379.401H1774.69ZM1776.42 378.16H1801.64L1789.1 339.53L1776.42 378.16ZM1788.67 338.151L1788.96 338.041L1788.67 338.151Z" fill="white"/>
<path d="M1881.42 408.36C1881.42 414.131 1885.42 415.85 1890.04 416.44C1895.95 416.88 1902.44 416.88 1909.1 416.15C1915.14 415.421 1920.34 411.961 1922.92 408.36C1925.22 405.18 1926.52 401.14 1927.39 397.97H1931.57C1929.99 406.19 1927.97 414.29 1926.23 422.5C1913.57 422.5 1900.85 421.93 1888.18 421.93C1875.47 421.93 1862.8 422.5 1850.11 422.5V418.149H1852.09C1857.31 418.149 1862.95 417.45 1862.95 408.5V334.38C1862.95 326.859 1857.31 326.15 1852.09 326.15H1850.11V321.82C1857.73 321.82 1865.24 322.39 1872.87 322.39C1880.25 322.39 1887.45 321.82 1894.81 321.82V326.15H1891.18C1885.72 326.15 1881.42 326.31 1881.42 333.93V408.36V408.36Z" fill="white"/>
<path d="M1926.23 423.111C1913.52 423.111 1900.83 422.531 1888.18 422.531C1875.48 422.531 1862.79 423.111 1850.08 423.111H1849.47V422.491V417.531H1850.08H1852.09C1857.32 417.411 1862.26 417.051 1862.32 408.501V334.352C1862.26 327.342 1857.35 326.862 1852.09 326.761H1849.47V326.152V321.202H1850.08C1857.75 321.202 1865.26 321.752 1872.88 321.752C1880.2 321.752 1887.4 321.202 1894.81 321.202H1895.4V321.822V326.761H1894.81H1891.19C1885.6 326.921 1882.12 326.661 1882.01 333.932V408.362C1882.05 413.732 1885.57 415.182 1890.07 415.812C1892.62 415.992 1895.29 416.102 1898.07 416.102C1901.6 416.102 1905.27 415.932 1908.99 415.532C1914.87 414.843 1919.93 411.452 1922.41 408.012C1924.63 404.932 1925.91 400.972 1926.77 397.822L1926.9 397.343H1927.38H1932.33L1932.2 398.103C1930.57 406.353 1928.59 414.413 1926.84 422.623L1926.72 423.113H1926.23H1926.23V423.111ZM1925.71 421.851C1927.38 414.031 1929.27 406.38 1930.82 398.58H1927.86C1926.96 401.72 1925.68 405.59 1923.41 408.74C1920.72 412.48 1915.38 416 1909.13 416.77C1905.35 417.16 1901.61 417.36 1898.07 417.36C1895.28 417.36 1892.57 417.23 1889.96 417.049C1885.27 416.529 1880.72 414.529 1880.74 408.36V333.93C1880.74 325.92 1885.81 325.51 1891.19 325.51H1894.17V322.45C1887.06 322.49 1880.06 323.019 1872.88 323.019C1865.41 323.019 1858.11 322.49 1850.71 322.45V325.51H1852.09C1857.24 325.51 1863.54 326.41 1863.54 334.35V408.5C1863.54 417.83 1857.27 418.8 1852.09 418.8H1850.71V421.85C1863.18 421.84 1875.65 421.3 1888.18 421.3C1900.71 421.3 1913.23 421.84 1925.71 421.851Z" fill="white"/>
</g>
<defs>
<clipPath id="clip0_0_1">
<rect width="1945" height="504" fill="white"/>
</clipPath>
</defs>
</svg>
