<svg width="127" height="22" viewBox="0 0 127 22" fill="none" xmlns="http://www.w3.org/2000/svg">
<g clip-path="url(#clip0_4_116)">
<path d="M10.3214 15.5404C9.0912 16.6513 7.4931 17.136 4.96318 17.136H3.91236V3.86206H4.96318C7.4931 3.86206 9.0283 4.31475 10.3214 5.48547C11.6756 6.69127 12.4902 8.55961 12.4902 10.4826C12.4902 12.4096 11.6756 14.3351 10.3214 15.5404V15.5404ZM5.74751 0.461038H0V20.5342H5.71718C8.75735 20.5342 10.9525 19.817 12.8795 18.217C15.1692 16.3219 16.5234 13.4658 16.5234 10.5115C16.5234 4.58771 12.0974 0.461038 5.74751 0.461038" fill="white"/>
<path d="M18.3252 20.5342H22.2406V0.461038H18.3252V20.5342Z" fill="white"/>
<path d="M31.8144 8.16393C29.4649 7.2945 28.7749 6.72104 28.7749 5.63651C28.7749 4.37234 30.0041 3.41161 31.6917 3.41161C32.865 3.41161 33.8291 3.89348 34.8493 5.03731L36.8978 2.35461C35.2143 0.88203 33.2 0.129131 30.9992 0.129131C27.4477 0.129131 24.7387 2.59559 24.7387 5.88087C24.7387 8.64638 26.0001 10.0622 29.6775 11.3857C31.2101 11.9263 31.9902 12.2866 32.384 12.5289C33.1663 13.0398 33.5581 13.7629 33.5581 14.6059C33.5581 16.2324 32.2649 17.4374 30.5179 17.4374C28.6504 17.4374 27.1462 16.5034 26.2447 14.7601L23.7151 17.1956C25.5191 19.8437 27.6856 21.0173 30.6648 21.0173C34.7339 21.0173 37.5881 18.3119 37.5881 14.4259C37.5881 11.2366 36.2685 9.79295 31.8144 8.16393" fill="white"/>
<path d="M38.8235 10.5116C38.8235 16.4118 43.4565 20.9869 49.4188 20.9869C51.1042 20.9869 52.5476 20.6555 54.3278 19.817V15.208C52.7625 16.7746 51.3761 17.4065 49.6007 17.4065C45.6575 17.4065 42.8586 14.5475 42.8586 10.4827C42.8586 6.62866 45.7459 3.58853 49.4188 3.58853C51.2863 3.58853 52.6999 4.25494 54.3278 5.84715V1.24033C52.6092 0.368382 51.1958 0.00728046 49.5112 0.00728046C43.5792 0.00728046 38.8235 4.67499 38.8235 10.5116Z" fill="white"/>
<path d="M85.373 13.9443L80.0201 0.461036H75.7427L84.2609 21.0493H86.3679L95.04 0.461036H90.7956L85.373 13.9443Z" fill="white"/>
<path d="M96.8105 20.5342H107.915V17.136H100.723V11.7176H107.649V8.31748H100.723V3.86206H107.915V0.461038H96.8105V20.5342" fill="white"/>
<path d="M115.562 9.70251H114.419V3.62281H115.624C118.063 3.62281 119.388 4.64443 119.388 6.59803C119.388 8.61604 118.063 9.70251 115.562 9.70251V9.70251ZM123.418 6.38718C123.418 2.62923 120.829 0.461038 116.314 0.461038H110.508V20.5342H114.419V12.4705H114.929L120.349 20.5342H125.164L118.845 12.0777C121.794 11.4781 123.418 9.46074 123.418 6.38718Z" fill="white"/>
<circle cx="66.25" cy="10.5" r="10.5" fill="white"/>
</g>
<defs>
<clipPath id="clip0_4_116">
<rect width="126.852" height="21.3568" fill="white"/>
</clipPath>
</defs>
</svg>
