<svg width="200" height="156" viewBox="0 0 200 156" fill="none" xmlns="http://www.w3.org/2000/svg">
<g clip-path="url(#clip0_1_2)">
<path d="M127 110.4H72.9V13.2H127V110.4Z" fill="#7375CF"/>
<path d="M76.4 61.8C76.4 42.1 85.6 24.5 100 13.2C89.5 4.9 76.2 0 61.8 0C27.7 0 0 27.7 0 61.8C0 95.9 27.7 123.6 61.8 123.6C76.2 123.6 89.5 118.7 100 110.4C85.6 99.1 76.4 81.5 76.4 61.8Z" fill="#EB001B"/>
<path d="M200 61.8C200 95.9 172.3 123.6 138.2 123.6C123.8 123.6 110.5 118.7 100 110.4C114.4 99.1 123.6 81.5 123.6 61.8C123.6 42.1 114.4 24.5 100 13.2C110.5 4.9 123.8 0 138.2 0C172.3 0 200 27.7 200 61.8Z" fill="#00A2E5"/>
<path d="M145.2 137.9C145.9 137.9 147 138 147.7 138.3L146.6 141.7C145.8 141.4 145.1 141.3 144.4 141.3C142.1 141.3 140.9 142.8 140.9 145.5V154.7H137.3V138.3H140.8V140.3C141.8 138.8 143.2 137.9 145.2 137.9ZM132 141.5H126.2V148.9C126.2 150.5 126.8 151.6 128.6 151.6C129.5 151.6 130.7 151.3 131.8 150.7L132.8 153.8C131.7 154.6 129.9 155.1 128.3 155.1C124.1 155.1 122.6 152.8 122.6 149V141.5H119.3V138.2H122.6V133.2H126.2V138.2H132V141.5V141.5ZM86.3 145C86.7 142.6 88.1 141 90.7 141C93 141 94.5 142.4 94.9 145H86.3ZM98.6 146.5C98.6 141.4 95.4 137.9 90.8 137.9C86 137.9 82.6 141.4 82.6 146.5C82.6 151.7 86.1 155.1 91 155.1C93.5 155.1 95.7 154.5 97.7 152.8L95.9 150.2C94.5 151.3 92.8 151.9 91.1 151.9C88.8 151.9 86.7 150.8 86.2 147.9H98.4C98.5 147.4 98.6 147 98.6 146.5ZM114.3 142.5C113.3 141.9 111.3 141.1 109.2 141.1C107.2 141.1 106.1 141.8 106.1 143C106.1 144.1 107.3 144.4 108.9 144.6L110.6 144.8C114.2 145.3 116.3 146.8 116.3 149.7C116.3 152.8 113.6 155.1 108.8 155.1C106.1 155.1 103.6 154.4 101.7 153L103.4 150.2C104.6 151.1 106.4 151.9 108.9 151.9C111.3 151.9 112.6 151.2 112.6 149.9C112.6 149 111.7 148.5 109.7 148.2L108 148C104.3 147.5 102.3 145.8 102.3 143.2C102.3 139.9 105 137.9 109.1 137.9C111.7 137.9 114.1 138.5 115.8 139.6L114.3 142.5ZM158.3 141.2C157.6 141.2 156.9 141.3 156.3 141.6C155.7 141.9 155.1 142.2 154.7 142.7C154.3 143.2 153.9 143.7 153.6 144.4C153.3 145 153.2 145.8 153.2 146.5C153.2 147.3 153.3 148 153.6 148.6C153.9 149.2 154.2 149.8 154.7 150.3C155.2 150.8 155.7 151.1 156.3 151.4C156.9 151.7 157.6 151.8 158.3 151.8C159 151.8 159.7 151.7 160.3 151.4C160.9 151.1 161.5 150.8 161.9 150.3C162.4 149.8 162.7 149.3 163 148.6C163.3 148 163.4 147.2 163.4 146.5C163.4 145.7 163.3 145 163 144.4C162.7 143.8 162.4 143.2 161.9 142.7C161.4 142.2 160.9 141.9 160.3 141.6C159.7 141.4 159 141.2 158.3 141.2ZM158.3 137.9C159.6 137.9 160.8 138.1 161.8 138.6C162.9 139 163.8 139.6 164.6 140.4C165.4 141.2 166 142.1 166.5 143.1C166.9 144.2 167.2 145.3 167.2 146.5C167.2 147.7 167 148.9 166.5 149.9C166.1 151 165.4 151.9 164.6 152.6C163.8 153.4 162.9 154 161.8 154.4C160.7 154.8 159.5 155.1 158.3 155.1C157 155.1 155.8 154.9 154.8 154.4C153.7 154 152.8 153.4 152 152.6C151.2 151.8 150.6 150.9 150.1 149.9C149.7 148.8 149.4 147.7 149.4 146.5C149.4 145.3 149.6 144.1 150.1 143.1C150.5 142 151.2 141.1 152 140.4C152.8 139.6 153.7 139 154.8 138.6C155.8 138.1 157 137.9 158.3 137.9ZM65.5 146.5C65.5 143.6 67.4 141.2 70.5 141.2C73.5 141.2 75.4 143.5 75.4 146.5C75.4 149.5 73.4 151.7 70.5 151.7C67.4 151.7 65.5 149.4 65.5 146.5ZM78.8 146.5V138.3H75.2V140.3C74.1 138.8 72.4 137.9 70 137.9C65.4 137.9 61.8 141.5 61.8 146.5C61.8 151.5 65.4 155.1 70 155.1C72.3 155.1 74 154.2 75.2 152.7V154.7H78.8V146.5ZM58.7 154.7V144.4C58.7 140.5 56.2 137.9 52.2 137.9C50.1 137.9 47.9 138.5 46.4 140.8C45.3 139 43.5 137.9 41 137.9C39.3 137.9 37.5 138.4 36.2 140.3V138.3H32.6V154.7H36.2V145.6C36.2 142.8 37.8 141.2 40.2 141.2C42.6 141.2 43.8 142.7 43.8 145.5V154.6H47.4V145.5C47.4 142.7 49.1 141.1 51.4 141.1C53.8 141.1 55 142.6 55 145.4V154.5H58.7V154.7Z" fill="white"/>
</g>
<defs>
<clipPath id="clip0_1_2">
<rect width="200" height="155.6" fill="white"/>
</clipPath>
</defs>
</svg>
