<svg width="153" height="50" viewBox="0 0 153 50" fill="none" xmlns="http://www.w3.org/2000/svg">
<path d="M75.5259 0.870358L65.3352 48.5139H53.0093L63.2009 0.870358H75.5259ZM127.381 31.6352L133.87 13.7426L137.603 31.6352H127.381V31.6352ZM141.14 48.5139H152.537L142.58 0.870358H132.066C129.696 0.870358 127.7 2.24443 126.816 4.36295L108.32 48.5139H121.265L123.835 41.3991H139.646L141.14 48.5139ZM108.962 32.9592C109.017 20.3861 91.5815 19.6889 91.6972 14.0713C91.7352 12.3639 93.363 10.5454 96.9232 10.0805C98.6889 9.85276 103.558 9.66943 109.08 12.213L111.239 2.10554C108.273 1.03332 104.457 -1.14697e-05 99.7102 -1.14697e-05C87.525 -1.14697e-05 78.9528 6.47221 78.8843 15.7481C78.8065 22.6074 85.0074 26.4315 89.6695 28.7157C94.4769 31.0509 96.088 32.5491 96.0648 34.6352C96.0315 37.8315 92.2306 39.2463 88.6935 39.3C82.4917 39.3963 78.8991 37.6241 76.0343 36.2889L73.7972 46.7333C76.6815 48.0537 81.9963 49.2028 87.5 49.262C100.454 49.262 108.924 42.8648 108.962 32.9592M57.9139 0.870358L37.9426 48.5139H24.9148L15.0861 10.4907C14.4907 8.15276 13.9713 7.2935 12.1593 6.30554C9.19537 4.69536 4.30185 3.1898 0 2.25277L0.290744 0.870358H21.2648C23.9361 0.870358 26.3398 2.64814 26.9509 5.72499L32.1426 33.2972L44.9648 0.870358H57.9139Z" fill="white"/>
</svg>
